<?xml version="1.0" encoding="UTF-8"?>
<svg version="1.1" xmlns="http://www.w3.org/2000/svg" width="960" height="290">
<path d="M0 0 C4.51685543 4.04030646 7.36761311 9.27782203 10.4375 14.4375 C11.4275 15.9225 11.4275 15.9225 12.4375 17.4375 C12.7778125 16.8084375 13.118125 16.179375 13.46875 15.53125 C20.10455809 3.81269529 28.12551842 -3.35202654 41.16015625 -7.41015625 C54.46190524 -10.36827716 67.76276641 -7.9103756 79.25 -0.75 C88.2281642 5.64694199 93.00391467 13.8393109 95.03557396 24.56828499 C95.76757993 29.79382979 95.72344618 35.00696604 95.7121582 40.27514648 C95.71726913 41.5202449 95.72238007 42.76534332 95.72764587 44.048172 C95.7390912 47.43205236 95.74162823 50.81568629 95.73908257 54.19956851 C95.73800693 57.03058541 95.74291038 59.8615801 95.747688 62.6925922 C95.75874008 69.36661188 95.75924237 76.04057523 95.75317383 82.71459961 C95.74711228 89.597167 95.75950981 96.4795311 95.7807439 103.36206383 C95.79833945 109.28329565 95.80436523 115.20446259 95.80110615 121.12571961 C95.79929274 124.65749765 95.80193685 128.18913002 95.81582069 131.72088432 C95.83069072 135.64921012 95.82144707 139.57727402 95.80981445 143.50561523 C95.81745819 144.67601349 95.82510193 145.84641174 95.83297729 147.05227661 C95.82596298 148.11896072 95.81894867 149.18564484 95.8117218 150.28465271 C95.81188954 151.21281516 95.81205729 152.14097761 95.81223011 153.0972662 C95.4375 155.4375 95.4375 155.4375 94.13995647 157.2362833 C91.21486367 159.30016592 87.79008069 158.84228039 84.33984375 158.80078125 C83.15473961 158.80152901 83.15473961 158.80152901 81.94569397 158.80229187 C80.27716555 158.79995308 78.60863349 158.79023594 76.94018555 158.77368164 C74.38102836 158.75005565 71.82291063 158.75312592 69.26367188 158.75976562 C67.64322293 158.75418992 66.02277839 158.74708071 64.40234375 158.73828125 C63.25076027 158.73964836 63.25076027 158.73964836 62.07591248 158.74104309 C56.66854034 158.66854034 56.66854034 158.66854034 54.4375 156.4375 C54.1813736 154.61912823 54.1813736 154.61912823 54.17248535 152.37419128 C54.16421219 151.52357117 54.15593903 150.67295105 54.14741516 149.79655457 C54.14839706 148.86104263 54.14937897 147.9255307 54.15039062 146.96166992 C54.14355759 145.97764191 54.13672455 144.99361389 54.12968445 143.97976685 C54.11606559 141.83593734 54.10703219 139.69207504 54.10197449 137.54820824 C54.0936967 134.1460629 54.07319605 130.74418747 54.04943848 127.34211731 C54.00111226 120.10311834 53.96830618 112.86409188 53.9375 105.625 C53.90174733 97.27250754 53.85953454 88.92014401 53.80155945 80.56777382 C53.78163754 77.23284245 53.77319682 73.89801224 53.76525879 70.56303406 C54.69011252 51.30612409 54.69011252 51.30612409 47.4375 34.4375 C42.37757758 31.16678438 36.21225111 31.85499086 30.4375 32.4375 C25.37818887 34.8340158 21.68556604 38.24293684 19.61777496 43.53567696 C17.62835053 49.80140927 17.00899808 55.41347455 17.05273438 61.96435547 C17.0473616 62.96400833 17.04198883 63.96366119 17.03645325 64.99360657 C17.02673395 67.14495802 17.02371322 69.2963484 17.02680969 71.44771957 C17.03131299 74.85230829 17.01721945 78.25638427 16.99841309 81.66091919 C16.95554018 90.10686729 16.9443562 98.55280243 16.93218994 106.99884033 C16.92067363 114.156882 16.89716864 121.31468686 16.85749817 128.47262955 C16.84391088 131.82746516 16.84809997 135.18198231 16.85290527 138.53683472 C16.84356881 140.5868979 16.83340104 142.63695752 16.82226562 144.68701172 C16.82841385 145.62004623 16.83456207 146.55308075 16.84089661 147.51438904 C16.78121007 153.75546093 16.78121007 153.75546093 15.13830566 157.01554871 C12.27728236 159.40749499 8.92891833 158.98594974 5.375 158.93359375 C4.19345337 158.9357766 4.19345337 158.9357766 2.98803711 158.93800354 C1.32369282 158.93634455 -0.34066681 158.92478312 -2.00488281 158.90405273 C-4.55339676 158.87510341 -7.09982999 158.8834411 -9.6484375 158.89648438 C-11.26563512 158.89024667 -12.88282616 158.88185547 -14.5 158.87109375 C-15.26256104 158.87402939 -16.02512207 158.87696503 -16.81079102 158.87998962 C-22.09071049 158.78577481 -22.09071049 158.78577481 -24.26369476 157.18167877 C-25.88798423 155.00040391 -25.93852156 153.82928719 -25.94104004 151.12658691 C-25.94924271 150.24645935 -25.95744537 149.36633179 -25.96589661 148.45953369 C-25.95974838 147.49642273 -25.95360016 146.53331177 -25.94726562 145.54101562 C-25.9526384 144.52436829 -25.95801117 143.50772095 -25.96354675 142.46026611 C-25.97334156 140.24878339 -25.97626379 138.03726216 -25.97319031 135.82575989 C-25.96871843 132.31899687 -25.98269832 128.81274024 -26.00158691 125.30603027 C-26.03843097 117.84986195 -26.0520742 110.39374593 -26.0625 102.9375 C-26.07459452 94.32342407 -26.09630118 85.70959314 -26.14250183 77.09562683 C-26.1560172 73.65304805 -26.15190924 70.21078314 -26.14709473 66.76818848 C-26.15644415 64.63516856 -26.16661517 62.50215205 -26.17773438 60.36914062 C-26.17158615 59.42222351 -26.16543793 58.4753064 -26.15910339 57.49969482 C-26.22987907 49.71098122 -27.05626277 41.66922696 -31.9375 35.375 C-36.88352701 31.72436102 -41.41281204 30.53146862 -47.5625 31.4375 C-53.59594745 33.36469919 -56.29955575 35.96091858 -59.5625 41.4375 C-63.2001842 52.99619961 -62.99159625 65.19544524 -62.97319031 77.18668556 C-62.96865058 80.40245977 -62.98287719 83.61770153 -63.00158691 86.8334198 C-63.04424338 94.80060256 -63.05567056 102.76776928 -63.06781006 110.73504639 C-63.07932119 117.51083205 -63.10278111 124.28636713 -63.14250183 131.06204796 C-63.15608167 134.23025866 -63.15190384 137.39813207 -63.14709473 140.56636047 C-63.15642773 142.49582355 -63.16659462 144.42528284 -63.17773438 146.35473633 C-63.17158615 147.23518616 -63.16543793 148.11563599 -63.15910339 149.02276611 C-63.21978104 154.98195161 -63.21978104 154.98195161 -64.86031342 157.16257763 C-67.7548713 159.33057533 -71.18525065 158.8425771 -74.66015625 158.80078125 C-75.45022568 158.80127975 -76.2402951 158.80177826 -77.05430603 158.80229187 C-78.72283445 158.79995308 -80.39136651 158.79023594 -82.05981445 158.77368164 C-84.61897164 158.75005565 -87.17708937 158.75312592 -89.73632812 158.75976562 C-91.35677707 158.75418992 -92.97722161 158.74708071 -94.59765625 158.73828125 C-95.36537857 158.73919266 -96.13310089 158.74010406 -96.92408752 158.74104309 C-102.33145966 158.66854034 -102.33145966 158.66854034 -104.5625 156.4375 C-104.81418228 153.71382904 -104.81418228 153.71382904 -104.81646729 150.17419434 C-104.81958727 149.52461179 -104.82270725 148.87502925 -104.82592177 148.20576239 C-104.83392799 146.01924531 -104.82756811 143.83300374 -104.82128906 141.64648438 C-104.82399777 140.0829502 -104.82755802 138.51941731 -104.83190918 136.95588684 C-104.84104983 132.70184277 -104.83748206 128.44789539 -104.83115101 124.19384956 C-104.82609966 119.74914406 -104.83078004 115.30444703 -104.83392334 110.85974121 C-104.83756552 103.39459746 -104.8327573 95.92949323 -104.82324219 88.46435547 C-104.81235715 79.82447501 -104.81588255 71.18468894 -104.826895 62.54481077 C-104.83596072 55.13672434 -104.83725666 47.72866638 -104.83201766 40.32057619 C-104.82889401 35.89169549 -104.82849939 31.4628592 -104.83509064 27.03398132 C-104.8408531 22.87092848 -104.83688748 18.70799772 -104.82530212 14.54495811 C-104.82264963 13.01386913 -104.82343063 11.48276992 -104.82782745 9.95168495 C-104.83326129 7.86791813 -104.82647561 5.78454701 -104.81646729 3.70080566 C-104.81571323 2.53272621 -104.81495918 1.36464676 -104.81418228 0.16117096 C-104.5625 -2.5625 -104.5625 -2.5625 -102.5625 -4.5625 C-99.93309804 -4.76215373 -97.41129837 -4.8423411 -94.78125 -4.828125 C-94.01196167 -4.83003845 -93.24267334 -4.8319519 -92.45007324 -4.83392334 C-90.8226692 -4.83528508 -89.1952543 -4.83158939 -87.56787109 -4.82324219 C-85.07234369 -4.81254221 -82.57753618 -4.82313751 -80.08203125 -4.8359375 C-78.50260257 -4.8346159 -76.92317434 -4.8320535 -75.34375 -4.828125 C-74.5947644 -4.83217346 -73.84577881 -4.83622192 -73.07409668 -4.84039307 C-67.79242243 -4.79242243 -67.79242243 -4.79242243 -65.5625 -2.5625 C-65.24365234 -0.59130859 -65.24365234 -0.59130859 -65.1484375 1.7890625 C-65.09042969 3.06523437 -65.09042969 3.06523437 -65.03125 4.3671875 C-65.0003125 5.25664062 -64.969375 6.14609375 -64.9375 7.0625 C-64.89882812 7.9596875 -64.86015625 8.856875 -64.8203125 9.78125 C-64.72590643 11.9997927 -64.64033252 14.21832403 -64.5625 16.4375 C-64.07994751 15.5091333 -64.07994751 15.5091333 -63.58764648 14.56201172 C-58.01872277 3.97266368 -51.56868878 -2.26583403 -40.375 -6.875 C-26.22146653 -10.33475263 -11.74340869 -9.03539427 0 0 Z " fill="#211E1E" transform="translate(268.5625,9.5625)"/>
<path d="M0 0 C9.52708203 8.00827185 14.46069453 17.46007767 16.1875 29.75 C16.2801208 32.23252813 16.32268428 34.71716962 16.3293457 37.20141602 C16.33282013 37.92268173 16.33629456 38.64394745 16.33987427 39.3870697 C16.34719386 40.9453461 16.35255933 42.50363266 16.35616493 44.06192207 C16.36338708 46.54022054 16.37909807 49.01832742 16.39750671 51.49656677 C16.44969089 58.54040821 16.49786332 65.58414344 16.51342773 72.62817383 C16.52359267 76.94714062 16.55312996 81.26562111 16.59474754 85.58439445 C16.60694275 87.2175622 16.61220014 88.85079897 16.60994911 90.4840107 C16.59600847 103.90529291 17.82245563 115.57737663 26.69921875 126.3359375 C28.72117376 129.61564406 29.22571544 131.89448626 29.1875 135.75 C27.45080342 138.00009959 26.10116575 139.39179668 23.9375 141.125 C23.12563232 141.8200061 23.12563232 141.8200061 22.29736328 142.52905273 C20.61296164 143.9606228 18.90404154 145.35721372 17.1875 146.75 C16.12691142 147.62807017 15.06698895 148.5069457 14.0078125 149.38671875 C12.13733588 150.92725719 10.25805825 152.45721926 8.3671875 153.97265625 C6.15361041 155.71645184 6.15361041 155.71645184 4.1875 157.75 C0.74352972 158.56402934 -0.52715166 158.80279279 -3.8125 157.75 C-9.82314388 152.98293761 -14.82881901 147.3212121 -18.8125 140.75 C-18.8125 140.09 -18.8125 139.43 -18.8125 138.75 C-19.7303125 139.48605469 -20.648125 140.22210938 -21.59375 140.98046875 C-40.3049352 155.91009482 -55.51583049 160.75216587 -79.8125 158.75 C-90.92906388 157.14513514 -98.95463001 150.47921251 -106.0546875 142.16796875 C-114.3071184 130.81629157 -115.29637586 114.98749647 -113.34765625 101.54296875 C-110.14187529 87.06953165 -102.88779716 75.52209511 -90.52734375 67.34375 C-75.86199152 58.7344497 -58.93827206 56.31318235 -42.3125 54.5 C-40.79546128 54.32649418 -39.27853315 54.15201856 -37.76171875 53.9765625 C-34.11317711 53.55659454 -30.46334531 53.14951193 -26.8125 52.75 C-26.41709233 38.25556902 -26.41709233 38.25556902 -32.8125 25.75 C-38.78807358 21.71996201 -45.5359157 21.12440666 -52.5 22.4375 C-58.77600857 24.07757193 -63.2677397 27.31470087 -66.8125 32.75 C-67.81096072 35.32969647 -68.74114528 37.91002976 -69.58984375 40.54296875 C-71.24219411 43.52564591 -72.57413084 43.78758186 -75.8125 44.75 C-78.87109375 44.74926758 -78.87109375 44.74926758 -82.25 44.39453125 C-83.47460938 44.26626953 -84.69921875 44.13800781 -85.9609375 44.00585938 C-87.86746094 43.78639648 -87.86746094 43.78639648 -89.8125 43.5625 C-91.08351563 43.43552734 -92.35453125 43.30855469 -93.6640625 43.17773438 C-104.57287339 41.97776518 -104.57287339 41.97776518 -108.8125 38.75 C-110.46951884 29.9125662 -105.17146311 20.41881103 -100.55859375 13.16015625 C-90.01126909 -1.39845519 -74.60952073 -7.71224764 -57.45703125 -10.8671875 C-37.943503 -12.91683998 -16.39662612 -11.9449283 0 0 Z M-62.875 88.125 C-68.47156913 94.47050174 -69.8125 101.48501534 -69.8125 109.75 C-69.06176536 116.57699316 -66.3014077 121.70356478 -61 126.0625 C-55.92129313 128.75122717 -51.88550789 129.27438449 -46.375 127.75 C-37.279602 124.26961811 -32.99225933 118.11793603 -28.94140625 109.51953125 C-27.1882586 105.21855657 -26.66201884 101.53652751 -26.49609375 96.890625 C-26.43325195 95.21806641 -26.43325195 95.21806641 -26.36914062 93.51171875 C-26.32982422 92.35285156 -26.29050781 91.19398437 -26.25 90 C-26.18522461 88.23849609 -26.18522461 88.23849609 -26.11914062 86.44140625 C-26.01315206 83.54438549 -25.91108362 80.64728065 -25.8125 77.75 C-38.74146294 77.57289092 -52.96236669 78.85793735 -62.875 88.125 Z " fill="#211E1E" transform="translate(113.8125,11.25)"/>
<path d="M0 0 C9.52840901 8.00938728 14.45797254 17.45960442 16.1875 29.75 C16.2849072 32.2430365 16.33278333 34.73824656 16.34521484 37.2331543 C16.35029556 37.9576326 16.35537628 38.6821109 16.36061096 39.42854309 C16.37126342 40.99336756 16.37990343 42.55820677 16.38673019 44.1230526 C16.39860457 46.6091978 16.41807997 49.09517586 16.43984985 51.58125305 C16.5011698 58.64712876 16.55537258 65.7129858 16.58886719 72.77905273 C16.60994648 77.11091359 16.64535344 81.44246581 16.68962479 85.77414894 C16.70367925 87.41455235 16.71248307 89.05501031 16.71567917 90.69547081 C16.74219499 103.00487093 17.3974776 113.89260093 24.875 124.125 C28.96513434 129.79411643 28.96513434 129.79411643 29.7890625 133.3359375 C28.89911858 136.90727089 26.58454355 138.70930913 23.875 141 C23.3382666 141.47236084 22.8015332 141.94472168 22.24853516 142.43139648 C17.71593499 146.38961939 13.06242428 150.20966214 8.3671875 153.97265625 C6.15361041 155.71645184 6.15361041 155.71645184 4.1875 157.75 C0.8107932 158.47358003 -0.59308149 158.71635945 -3.8125 157.75 C-9.81379691 153.11470391 -14.80236741 147.16621215 -18.8125 140.75 C-18.8125 140.09 -18.8125 139.43 -18.8125 138.75 C-19.81216797 139.60271484 -19.81216797 139.60271484 -20.83203125 140.47265625 C-39.57929631 156.17840698 -55.50233917 160.75327762 -79.8125 158.75 C-90.55385729 157.19930259 -98.51628534 150.9648636 -105.28125 142.80078125 C-113.79473203 131.39879639 -114.97484115 116.84067185 -113.53125 103.06640625 C-111.2249143 89.20621574 -104.309259 77.29330694 -93 68.875 C-77.80469452 59.0949186 -59.92385261 56.42066832 -42.3125 54.5 C-40.79546128 54.32649418 -39.27853315 54.15201856 -37.76171875 53.9765625 C-34.11317711 53.55659454 -30.46334531 53.14951193 -26.8125 52.75 C-26.79203565 51.02739444 -26.77760691 49.30471669 -26.765625 47.58203125 C-26.75257324 46.14307495 -26.75257324 46.14307495 -26.73925781 44.67504883 C-26.91662467 37.59160794 -28.02472742 31.202741 -32.8125 25.75 C-38.78807358 21.71996201 -45.5359157 21.12440666 -52.5 22.4375 C-58.77600857 24.07757193 -63.2677397 27.31470087 -66.8125 32.75 C-67.81096072 35.32969647 -68.74114528 37.91002976 -69.58984375 40.54296875 C-71.24219411 43.52564591 -72.57413084 43.78758186 -75.8125 44.75 C-78.87109375 44.74926758 -78.87109375 44.74926758 -82.25 44.39453125 C-83.47460938 44.26626953 -84.69921875 44.13800781 -85.9609375 44.00585938 C-87.86746094 43.78639648 -87.86746094 43.78639648 -89.8125 43.5625 C-91.08351563 43.43552734 -92.35453125 43.30855469 -93.6640625 43.17773438 C-104.00760347 42.03994487 -104.00760347 42.03994487 -108.8125 38.75 C-108.21732637 24.76341967 -102.24713191 13.2596419 -92.11328125 3.66015625 C-68.62177117 -15.842982 -24.78948954 -18.05912223 0 0 Z M-62.875 88.125 C-68.19833113 94.1477469 -69.8125 100.86749558 -69.8125 108.75 C-69.0652967 116.01188203 -66.75393083 121.33149021 -61 126.0625 C-55.92129313 128.75122717 -51.88550789 129.27438449 -46.375 127.75 C-37.6655166 124.41728952 -32.81878826 118.39009719 -29 110.046875 C-25.26416351 99.67501315 -25.53832109 88.62576332 -25.8125 77.75 C-38.58623426 77.24906924 -53.16472968 79.06615243 -62.875 88.125 Z " fill="#211E1E" transform="translate(502.8125,11.25)"/>
<path d="M0 0 C15.93448055 16.21403284 13.54039947 42.23424513 13.52734375 63.12109375 C13.5312356 65.71706714 13.53557128 68.3130399 13.54032898 70.90901184 C13.54775423 76.32095697 13.54766423 81.73282999 13.54223633 87.14477539 C13.53616162 93.39804868 13.54861318 99.65109896 13.5698064 105.90433425 C13.58951727 111.94319557 13.59260128 117.98193945 13.58907127 124.02083778 C13.58958539 126.5833724 13.59484007 129.14591054 13.60488319 131.70842552 C13.61716148 135.27478985 13.61051073 138.84062712 13.59887695 142.40698242 C13.60652069 143.46823837 13.61416443 144.52949432 13.62203979 145.62290955 C13.61502548 146.59125732 13.60801117 147.5596051 13.6007843 148.55729675 C13.60095204 149.39914615 13.60111979 150.24099554 13.60129261 151.10835552 C13.13437856 153.79631522 12.4225571 154.67813771 10.2265625 156.265625 C7.46237217 156.56387843 4.92807656 156.68607386 2.1640625 156.6640625 C0.98251587 156.66836777 0.98251587 156.66836777 -0.22290039 156.67276001 C-1.88721435 156.67480022 -3.55155231 156.66927332 -5.21582031 156.65673828 C-7.76421697 156.64068309 -10.31102771 156.65658744 -12.859375 156.67578125 C-14.476566 156.67379881 -16.09375602 156.66995511 -17.7109375 156.6640625 C-18.47349854 156.67013519 -19.23605957 156.67620789 -20.02172852 156.6824646 C-25.30358154 156.61219853 -25.30358154 156.61219853 -27.47463226 155.01079559 C-29.09850553 152.8288396 -29.14945878 151.65771574 -29.15197754 148.95471191 C-29.16018021 148.07458435 -29.16838287 147.19445679 -29.17683411 146.28765869 C-29.17068588 145.32454773 -29.16453766 144.36143677 -29.15820312 143.36914062 C-29.1635759 142.35249329 -29.16894867 141.33584595 -29.17448425 140.28839111 C-29.18427906 138.07690839 -29.18720129 135.86538716 -29.18412781 133.65388489 C-29.17965593 130.14712187 -29.19363582 126.64086524 -29.21252441 123.13415527 C-29.24936847 115.67798695 -29.2630117 108.22187093 -29.2734375 100.765625 C-29.28553202 92.15154907 -29.30723868 83.53771814 -29.35343933 74.92375183 C-29.3669547 71.48117305 -29.36284674 68.03890814 -29.35803223 64.59631348 C-29.36738165 62.46329356 -29.37755267 60.33027705 -29.38867188 58.19726562 C-29.38252365 57.25034851 -29.37637543 56.3034314 -29.37004089 55.32781982 C-29.44090489 47.52938709 -30.2391106 39.4497793 -35.2109375 33.203125 C-40.34027804 29.32484313 -44.40669417 28.39449965 -50.7734375 29.265625 C-55.60195993 31.01030595 -59.08958402 33.91593143 -61.7734375 38.265625 C-65.43550019 46.9368663 -66.9202325 54.41975248 -66.93115234 63.76586914 C-66.93623306 64.71602402 -66.94131378 65.66617889 -66.94654846 66.64512634 C-66.95723045 68.70381315 -66.9658591 70.76251141 -66.97266769 72.82121468 C-66.98447459 76.07825384 -67.00392994 79.33516148 -67.02578735 82.59214783 C-67.08735943 91.85085701 -67.14152547 101.10955058 -67.17480469 110.3684082 C-67.19571854 116.03472357 -67.23098893 121.70079548 -67.27556229 127.36697197 C-67.28974155 129.52672911 -67.29844905 131.68652928 -67.30161667 133.84633064 C-67.30651102 136.86273945 -67.32962892 139.87849813 -67.35693359 142.89477539 C-67.35392746 143.78891144 -67.35092133 144.68304749 -67.3478241 145.60427856 C-67.3957638 149.16036889 -67.4442895 151.61947992 -69.07461548 154.81994629 C-71.92436928 157.24505519 -75.27343744 156.81420117 -78.8359375 156.76171875 C-79.62363525 156.76317398 -80.41133301 156.76462921 -81.22290039 156.76612854 C-82.88724468 156.76446955 -84.55160431 156.75290812 -86.21582031 156.73217773 C-88.76433426 156.70322841 -91.31076749 156.7115661 -93.859375 156.72460938 C-95.47657262 156.71837167 -97.09376366 156.70998047 -98.7109375 156.69921875 C-99.47349854 156.70215439 -100.23605957 156.70509003 -101.02172852 156.70811462 C-106.2484045 156.61484988 -106.2484045 156.61484988 -108.47448158 155.13417816 C-110.37463048 152.40080656 -110.15113587 150.27489016 -110.15438843 146.96472168 C-110.1590684 146.32315738 -110.16374837 145.68159308 -110.16857016 145.02058744 C-110.1805531 142.8670314 -110.17105065 140.71410785 -110.16162109 138.56054688 C-110.16568535 137.01818978 -110.17102641 135.47583559 -110.17755127 133.93348694 C-110.1912481 129.74137572 -110.18591653 125.54948555 -110.17641401 121.35737038 C-110.16882964 116.9745282 -110.17585962 112.59170521 -110.18057251 108.2088623 C-110.18603364 100.84802851 -110.17882911 93.48728495 -110.16455078 86.12646484 C-110.14822356 77.61094223 -110.15351182 69.09563509 -110.17003 60.5801177 C-110.18363472 53.27474416 -110.1855695 45.96943556 -110.17771399 38.66405344 C-110.17303188 34.29829278 -110.17242734 29.93263346 -110.18232346 25.56687927 C-110.19097614 21.46284819 -110.18500253 17.35909547 -110.16764069 13.25509453 C-110.16366672 11.74700318 -110.16482541 10.23888848 -110.17142868 8.73080635 C-110.17959883 6.67572849 -110.16937903 4.6215486 -110.15438843 2.56652832 C-110.15325735 1.41541817 -110.15212627 0.26430801 -110.15096092 -0.92168427 C-109.7734375 -3.734375 -109.7734375 -3.734375 -108.46300697 -5.60292816 C-105.62559136 -7.50304827 -102.44968937 -7.18145108 -99.1484375 -7.16796875 C-98.033479 -7.17583153 -98.033479 -7.17583153 -96.89599609 -7.18385315 C-95.32585905 -7.19027108 -93.75567392 -7.18893924 -92.18554688 -7.18041992 C-89.78168314 -7.17190421 -87.3801917 -7.20067861 -84.9765625 -7.23242188 C-83.45052155 -7.23403386 -81.92447638 -7.2334564 -80.3984375 -7.23046875 C-79.67962402 -7.24170273 -78.96081055 -7.25293671 -78.22021484 -7.26451111 C-75.03515984 -7.21996873 -73.23736458 -7.15438482 -70.82885742 -4.97387695 C-69.71552887 -2.61149833 -69.35451496 -1.00454375 -69.26171875 1.59375 C-69.22626953 2.39296875 -69.19082031 3.1921875 -69.15429688 4.015625 C-69.12045898 5.253125 -69.12045898 5.253125 -69.0859375 6.515625 C-69.05177734 7.35609375 -69.01761719 8.1965625 -68.98242188 9.0625 C-68.90020182 11.12974704 -68.83513593 13.19766374 -68.7734375 15.265625 C-68.48243164 14.6773291 -68.19142578 14.0890332 -67.89160156 13.48291016 C-62.75607687 3.30449974 -55.72447914 -4.9238764 -44.7734375 -8.734375 C-29.19583371 -13.45775257 -12.35620942 -10.59103664 0 0 Z " fill="#211E1E" transform="translate(946.7734375,11.734375)"/>
<path d="M0 0 C1.010625 0.721875 2.02125 1.44375 3.0625 2.1875 C19.1914267 16.21464022 26.32362916 40.17002891 27.87109375 60.88720703 C29.56990213 88.73093382 24.71421895 115.81506723 5.75 137.25 C-6.1400103 150.07279973 -21.73225895 155.99585306 -39 157 C-56.7839731 157.15414061 -72.48182265 151.16568112 -85.36328125 138.890625 C-104.48610458 117.92634461 -109.06325755 89.38180288 -108 62 C-106.84662563 41.78781746 -100.61426049 21.33914417 -87 6 C-86.49210938 5.39929688 -85.98421875 4.79859375 -85.4609375 4.1796875 C-63.53222615 -19.90948802 -24.43995781 -19.11330034 0 0 Z M-52.6875 22.5625 C-66.30829401 36.91955314 -63.67312329 61.61469765 -63.2375946 79.9743042 C-62.80373794 94.09207988 -61.65498313 110.59870694 -51 121 C-46.18083291 124.28579574 -41.66947274 124.86337148 -36 124 C-29.50906943 121.87070003 -25.8476902 118.42486221 -22.5859375 112.37890625 C-17.35792727 100.21956632 -16.66007241 87.80140632 -16.73925781 74.72363281 C-16.7499582 72.63316631 -16.73929714 70.54356545 -16.7265625 68.453125 C-16.63231595 43.66301949 -16.63231595 43.66301949 -27.4375 22.3046875 C-35.38670325 15.66710278 -44.50639969 17.80604633 -52.6875 22.5625 Z " fill="#211E1E" transform="translate(788,15)"/>
<path d="M0 0 C3.39785645 0.86785982 5.98841177 2.09358687 9.04638672 3.80419922 C10.16634033 4.42125732 11.28629395 5.03831543 12.44018555 5.67407227 C13.02845123 6.00224945 13.61671692 6.33042664 14.22280884 6.66854858 C96.11404826 52.20947164 192.14226001 71.81772704 389.15429688 48.26049805 C408.17671546 42.76443829 426.75688497 36.19356182 445.04125977 28.5793457 C448.30948712 27.40633685 450.76674427 27.20981379 454.17919922 27.81201172 C457.17919922 29.87451172 457.17919922 29.87451172 459.17919922 32.81201172 C459.49169922 36.18701172 459.49169922 36.18701172 458.17919922 39.81201172 C453.42969324 44.87971554 447.6053562 48.78112585 441.74169922 52.43701172 C440.93023438 52.94353271 440.11876953 53.45005371 439.28271484 53.97192383 C356.50625 104.72770322 251.91220076 117.86849344 158.05029297 95.57373047 C101.62254349 81.49319917 49.14965567 55.34017112 5.07763672 17.28076172 C3.36666059 15.82343434 1.63044308 14.39356222 -0.15673828 13.03076172 C-3.53539852 10.43815713 -4.73598353 9.1625897 -5.75830078 4.93701172 C-5.77892578 3.90576172 -5.79955078 2.87451172 -5.82080078 1.81201172 C-2.82080078 -0.18798828 -2.82080078 -0.18798828 0 0 Z " fill="#FF9900" transform="translate(140.82080078125,184.18798828125)"/>
<path d="M0 0 C1.4835347 -0.00810448 1.4835347 -0.00810448 2.99703979 -0.01637268 C6.26786173 -0.0288849 9.53780776 -0.01235183 12.80859375 0.00561523 C15.08015998 0.00546031 17.35172647 0.00397234 19.62329102 0.00120544 C24.38472169 -0.00017967 29.14585155 0.0123987 33.90722656 0.03515625 C40.01409577 0.06354089 46.12046502 0.0608049 52.22737122 0.04806614 C56.91821573 0.04111506 61.60894444 0.04889178 66.29977417 0.06132317 C68.55166174 0.0658432 70.80356173 0.06616967 73.05545044 0.06225777 C76.20128918 0.05935121 79.34643611 0.07582655 82.4921875 0.09765625 C83.89185257 0.09090378 83.89185257 0.09090378 85.3197937 0.08401489 C91.60004485 0.15651647 91.60004485 0.15651647 94.81840515 1.87612915 C98.92372634 6.55048695 97.12392646 16.34495064 96.9296875 22.18920898 C96.3338284 29.99370515 93.71353624 34.74614909 88.73095703 40.67114258 C86.4214952 43.51828904 84.39118078 46.54822395 82.31689453 49.56884766 C80.5378464 52.15689088 78.73396683 54.72577506 76.921875 57.29077148 C73.34975464 62.35166919 69.796065 67.42526008 66.24609375 72.50170898 C65.09122228 74.15150208 63.93627407 75.80124146 62.78125 77.45092773 C60.3298087 80.95288878 57.87945299 84.45560671 55.4296875 87.95874023 C54.80255859 88.8552832 54.17542969 89.75182617 53.52929688 90.67553711 C52.33630766 92.38106984 51.14358107 94.08678631 49.95117188 95.79272461 C46.74139335 100.3808422 43.5087372 104.95102008 40.24609375 109.50170898 C40.97497803 109.56640381 41.7038623 109.63109863 42.45483398 109.69775391 C81.67388608 113.29625715 81.67388608 113.29625715 96.24609375 123.50170898 C99.18202678 127.45433492 99.63042699 130.35289933 99.64453125 135.22827148 C99.64839844 136.50702148 99.65226563 137.78577148 99.65625 139.10327148 C99.64996582 139.76359375 99.64368164 140.42391602 99.63720703 141.10424805 C99.62108314 143.12804013 99.63711189 145.14985193 99.65625 147.17358398 C99.65238281 148.44975586 99.64851562 149.72592773 99.64453125 151.04077148 C99.64114746 152.20817871 99.63776367 153.37558594 99.63427734 154.57836914 C99.24609375 157.50170898 99.24609375 157.50170898 97.89526367 159.38305664 C95.27609818 161.15966897 93.34373818 160.84798272 90.24609375 160.50170898 C87.125 159.32983398 87.125 159.32983398 83.80859375 157.75170898 C59.70992404 146.85100231 32.92626047 145.89191084 7.74609375 153.37670898 C6.5096814 153.7433667 6.5096814 153.7433667 5.24829102 154.11743164 C0.57813072 155.57457846 -3.6746109 157.32684804 -7.95947266 159.69384766 C-10.96907847 161.04878448 -13.54455082 160.95101874 -16.75390625 160.50170898 C-20.07640812 155.51795618 -19.12576431 149.51023879 -19.12451172 143.6706543 C-19.12885163 141.40522183 -19.16507713 139.1417924 -19.203125 136.87670898 C-19.30554481 124.39184656 -16.27965246 117.0037105 -8.81640625 107.12670898 C-7.64766963 105.54490297 -6.48106673 103.9615186 -5.31640625 102.37670898 C-4.7234375 101.57104492 -4.13046875 100.76538086 -3.51953125 99.93530273 C-0.70378199 96.0543032 1.9920139 92.09439784 4.68359375 88.12670898 C10.84970666 79.05719841 17.12452828 70.06748776 23.42724609 61.0925293 C26.62049692 56.54396852 29.80825023 51.99156022 32.99609375 47.43920898 C33.59284912 46.58786377 34.18960449 45.73651855 34.80444336 44.859375 C35.35753174 44.06974365 35.91062012 43.2801123 36.48046875 42.46655273 C36.96741211 41.77166748 37.45435547 41.07678223 37.95605469 40.36083984 C39.07118541 38.75377693 40.16106731 37.12924865 41.24609375 35.50170898 C40.61604431 35.49806335 39.98599487 35.49441772 39.33685303 35.49066162 C32.78294911 35.44887186 26.2297478 35.37955099 19.67626953 35.29418945 C17.23005193 35.26595263 14.78374263 35.24475168 12.33740234 35.23071289 C8.82211261 35.20932168 5.30792863 35.16268861 1.79296875 35.11108398 C0.69805115 35.10985535 -0.39686646 35.10862671 -1.52496338 35.10736084 C-2.5457196 35.08764221 -3.56647583 35.06792358 -4.61816406 35.04760742 C-5.96385468 35.03428375 -5.96385468 35.03428375 -7.33673096 35.02069092 C-10.52685877 34.33575147 -11.74061595 33.01862702 -13.75390625 30.50170898 C-14.27148438 27.72436523 -14.27148438 27.72436523 -14.28515625 24.56420898 C-14.2903125 23.42209961 -14.29546875 22.27999023 -14.30078125 21.10327148 C-14.2853125 19.91475586 -14.26984375 18.72624023 -14.25390625 17.50170898 C-14.269375 16.31319336 -14.28484375 15.12467773 -14.30078125 13.90014648 C-14.295625 12.75803711 -14.29046875 11.61592773 -14.28515625 10.43920898 C-14.28064453 9.39635742 -14.27613281 8.35350586 -14.27148438 7.27905273 C-12.80066684 -0.61340964 -6.60943748 -0.06848049 0 0 Z " fill="#211E1E" transform="translate(567.75390625,3.498291015625)"/>
<path d="M0 0 C3.25461731 3.25461731 3.17444644 6.72354394 3.25 11.1875 C2.95350392 35.64842671 -6.44740944 61.87097225 -23 80 C-23.6703125 80.7734375 -24.340625 81.546875 -25.03125 82.34375 C-30.52228371 88.34164836 -30.52228371 88.34164836 -34.9375 89.0625 C-38 89 -38 89 -39 88 C-38.63981598 80.97641164 -36.33380177 75.11202482 -33.75 68.625 C-23.65378415 45.33374387 -23.65378415 45.33374387 -24.1875 21.0625 C-27.64961167 17.12285568 -31.99049158 16.66089967 -37 16 C-40.68808275 15.827902 -44.37080983 15.81014898 -48.0625 15.8125 C-49.1158252 15.81185547 -50.16915039 15.81121094 -51.25439453 15.81054688 C-59.18493188 15.86285442 -66.99473892 16.37857327 -74.87133789 17.28833008 C-79.07141495 17.76771686 -83.2496818 18.12278467 -87.4765625 18.25 C-88.29463379 18.27578125 -89.11270508 18.3015625 -89.95556641 18.328125 C-90.63022949 18.21984375 -91.30489258 18.1115625 -92 18 C-92.66 17.01 -93.32 16.02 -94 15 C-90.75241636 7.63881041 -83.51079849 4.46783464 -76.41137695 1.59423828 C-54.48003533 -6.8249148 -21.69875122 -11.92034402 0 0 Z " fill="#FF9900" transform="translate(642,180)"/>
</svg>
