<?xml version="1.0" encoding="UTF-8"?>
<svg version="1.1" xmlns="http://www.w3.org/2000/svg" width="2000" height="666">
<path d="M0 0 C1.22372314 0.34708008 1.22372314 0.34708008 2.47216797 0.70117188 C22.95983413 6.62473608 43.4399187 15.83448224 61 28 C61.67788574 28.46341797 62.35577148 28.92683594 63.05419922 29.40429688 C72.37054487 35.80487049 81.08505819 42.51436951 89.234375 50.3515625 C91.55629624 52.57509725 93.91911022 54.67842885 96.375 56.75 C100.32537223 60.18296381 103.63637622 64.00109936 107 68 C107.82371094 68.93585938 108.64742187 69.87171875 109.49609375 70.8359375 C120.78309944 83.72985155 130.10117452 97.80554433 138 113 C138.40605469 113.77939941 138.81210938 114.55879883 139.23046875 115.36181641 C147.63784228 131.72062513 158 152.21320064 158 171 C158.54527344 171.17015625 159.09054687 171.3403125 159.65234375 171.515625 C160.40644531 171.75796875 161.16054687 172.0003125 161.9375 172.25 C162.66839844 172.48203125 163.39929687 172.7140625 164.15234375 172.953125 C167 174 167 174 168.7644043 174.98657227 C175.5495353 178.6019247 182.21438017 178.47606717 189.72271729 178.44143677 C234.05748592 178.36263189 278.05882304 193.92116389 311 224 C312.41477121 225.21055206 313.83120691 226.41916416 315.25 227.625 C319.68007912 231.53445017 324.09518048 235.56188337 328 240 C328 240.66 328 241.32 328 242 C328.66 242 329.32 242 330 242 C331.24584961 243.27490234 331.24584961 243.27490234 332.65234375 245.0859375 C333.43774536 246.09672363 333.43774536 246.09672363 334.23901367 247.12792969 C334.79951416 247.86946289 335.36001465 248.61099609 335.9375 249.375 C336.80822144 250.52597168 336.80822144 250.52597168 337.6965332 251.70019531 C351.68184413 270.48478063 362.9595636 291.30189861 369 314 C369.17724609 314.64211426 369.35449219 315.28422852 369.53710938 315.94580078 C374.16530629 332.75016559 376.56960601 349.19944045 376.4375 366.625 C376.43545563 367.44440063 376.43341125 368.26380127 376.43130493 369.10803223 C376.36027897 386.67895968 375.48687321 405.87396398 368.03289974 422.10599047 C364.70298829 425.20839827 360.98878715 424.55750915 356.60128975 424.52192593 C355.13067014 424.53364218 355.13067014 424.53364218 353.63034104 424.54559512 C350.30992581 424.56706695 346.99017724 424.55978177 343.66970825 424.55284119 C341.27420182 424.56229265 338.87870169 424.57347767 336.48321068 424.58625358 C330.5589294 424.61316877 324.63478774 424.62125391 318.71046144 424.62148098 C311.60068656 424.62273174 304.49103478 424.64670921 297.3813086 424.67123566 C283.36046226 424.71876496 269.33964654 424.7426084 255.31873137 424.75693325 C242.85761519 424.76974159 230.39654779 424.79125926 217.93545914 424.82038689 C214.55478978 424.82822149 211.17412037 424.83603801 207.79345095 424.84384745 C206.53082326 424.84676773 206.53082326 424.84676773 205.24268793 424.849747 C117.2666288 425.0518628 29.29009529 425.03129132 -235.41720311 424.63204044 C-261.73125421 424.57841458 -288.04531069 424.52886449 -314.359375 424.48217773 C-315.27488193 424.48055215 -316.19038886 424.47892657 -317.13363842 424.47725173 C-326.33948418 424.4609093 -335.54533005 424.44463221 -344.75117601 424.42840267 C-363.45324847 424.39543018 -382.15532015 424.36202562 -400.85739136 424.32835388 C-401.71458637 424.3268111 -402.57178139 424.32526832 -403.45495201 424.32367879 C-459.30331538 424.22311403 -515.15165954 424.11249879 -571 424 C-571 423.34 -571 422.68 -571 422 C-571.99 421.67 -572.98 421.34 -574 421 C-576.63198783 413.86498536 -576.68530669 406.5219377 -577 399 C-577.04253906 397.98421875 -577.08507812 396.9684375 -577.12890625 395.921875 C-577.49007018 378.29707528 -574.25372535 359.11938967 -567 343 C-566.63132812 342.0615625 -566.26265625 341.123125 -565.8828125 340.15625 C-552.39372117 305.94861969 -524.00845783 278.00270908 -490.703125 263.02734375 C-473.96344451 255.77713249 -455.41063652 250.12330302 -437 251 C-437.2165625 250.030625 -437.433125 249.06125 -437.65625 248.0625 C-442.99823898 222.87521228 -438.81427539 200.23066566 -428 177 C-427.34 177 -426.68 177 -426 177 C-425.814375 176.195625 -425.62875 175.39125 -425.4375 174.5625 C-423.44463641 169.62366414 -420.42034158 166.044538 -417 162 C-416.27683594 161.12988281 -415.55367187 160.25976562 -414.80859375 159.36328125 C-395.60501228 137.18583379 -370.039319 126.0248759 -341.0390625 123.6796875 C-320.48017777 123.05416362 -300.940224 128.7313652 -283.37109375 139.07421875 C-280.15622188 141.05681146 -280.15622188 141.05681146 -277 142 C-276.6596875 141.1028125 -276.319375 140.205625 -275.96875 139.28125 C-270.86350099 126.04601759 -264.50714162 113.61398617 -257.6875 101.1875 C-257.26694336 100.41623779 -256.84638672 99.64497559 -256.41308594 98.8503418 C-255.81222168 97.77006714 -255.81222168 97.77006714 -255.19921875 96.66796875 C-254.84690186 96.03141357 -254.49458496 95.3948584 -254.1315918 94.73901367 C-252.93323154 92.89739121 -251.57707491 91.52128722 -250 90 C-249.22937976 88.79638912 -248.49851923 87.56625928 -247.8125 86.3125 C-247.214375 85.219375 -246.61625 84.12625 -246 83 C-245.34 83 -244.68 83 -244 83 C-243.67 81.68 -243.34 80.36 -243 79 C-242.34 79 -241.68 79 -241 79 C-240.7525 78.44828125 -240.505 77.8965625 -240.25 77.328125 C-238.75765526 74.54863293 -236.96327477 72.2185293 -235 69.75 C-234.29875 68.85796875 -233.5975 67.9659375 -232.875 67.046875 C-232.25625 66.37140625 -231.6375 65.6959375 -231 65 C-230.34 65 -229.68 65 -229 65 C-228.75121094 64.42636719 -228.50242187 63.85273437 -228.24609375 63.26171875 C-224.19757455 55.91346603 -216.25176212 50.39839577 -209.8046875 45.24609375 C-207.97789738 43.78313509 -206.16933051 42.29703045 -204.3828125 40.78515625 C-176.6641231 17.3846603 -141.57100211 1.68843217 -106 -5 C-105.23252441 -5.14953125 -104.46504883 -5.2990625 -103.67431641 -5.453125 C-69.82834514 -11.74878773 -32.9515114 -9.56930143 0 0 Z " fill="#F38020" transform="translate(1582,8)"/>
<path d="M0 0 C4.59921991 0.54276508 7.81613122 1.82097405 11.86328125 4.02734375 C18.93794084 7.3848263 25.34570153 7.71902774 33.0244751 7.59231567 C77.10985725 6.98463179 121.33474403 23.17310942 154 53 C155.41477121 54.21055206 156.83120691 55.41916416 158.25 56.625 C162.68007912 60.53445017 167.09518048 64.56188337 171 69 C171 69.66 171 70.32 171 71 C171.66 71 172.32 71 173 71 C174.24584961 72.27490234 174.24584961 72.27490234 175.65234375 74.0859375 C176.43774536 75.09672363 176.43774536 75.09672363 177.23901367 76.12792969 C177.79951416 76.86946289 178.36001465 77.61099609 178.9375 78.375 C179.80822144 79.52597168 179.80822144 79.52597168 180.6965332 80.70019531 C194.68184413 99.48478063 205.9595636 120.30189861 212 143 C212.17724609 143.64211426 212.35449219 144.28422852 212.53710938 144.94580078 C217.16530629 161.75016559 219.56960601 178.19944045 219.4375 195.625 C219.43545563 196.44440063 219.43341125 197.26380127 219.43130493 198.10803223 C219.25488293 241.75261012 219.25488293 241.75261012 209 253 C206.93478733 253.50435668 206.93478733 253.50435668 204.50799656 253.510602 C203.58225757 253.52266629 202.65651858 253.53473057 201.7027269 253.54716045 C200.68389969 253.54008215 199.66507247 253.53300385 198.6153717 253.52571106 C197.53408869 253.53391788 196.45280567 253.54212469 195.3387565 253.5505802 C191.69579095 253.57331696 188.05342457 253.56742003 184.41040039 253.56176758 C181.80516847 253.57213449 179.19994298 253.58424061 176.59472656 253.59796143 C170.23496786 253.62823683 163.87534491 253.63727841 157.51552141 253.63942621 C150.08786142 253.6428114 142.66032187 253.66786657 135.2327128 253.69398209 C121.94934451 253.7400137 108.66600343 253.76741411 95.38256836 253.78393555 C82.54723197 253.79992528 69.71199099 253.82707933 56.87670898 253.86791992 C56.08982663 253.87042143 55.30294428 253.87292293 54.49221701 253.87550024 C51.32745202 253.88558192 48.16268705 253.89567397 44.99792219 253.90579646 C32.71135169 253.94474188 20.42475753 253.97498769 8.13815932 254.00367621 C4.44515845 254.01231745 0.75215922 254.021316 -2.94083858 254.03119111 C-10.71394793 254.05190546 -18.48704112 254.06945619 -26.26017486 254.07772396 C-29.46967515 254.08117365 -32.67914557 254.0866235 -35.88863564 254.09566307 C-53.28319265 254.14280685 -70.62147804 253.73836146 -88 253 C-87.47778051 251.97202868 -87.47778051 251.97202868 -86.94501114 250.92329025 C-86.49089733 250.02360142 -86.03678352 249.12391258 -85.56890869 248.19696045 C-85.11763737 247.30539623 -84.66636604 246.41383202 -84.20141983 245.4952507 C-82.89092449 242.7734591 -81.96858713 240.13240433 -81.234375 237.203125 C-80.98429687 236.22472656 -80.73421875 235.24632812 -80.4765625 234.23828125 C-80.23679687 233.25214844 -79.99703125 232.26601563 -79.75 231.25 C-79.49476563 230.24839844 -79.23953125 229.24679687 -78.9765625 228.21484375 C-74.96179293 212.2614173 -74.02282705 196.16561077 -81.75 181.0625 C-89.17179076 168.66865382 -100.91432584 162.08553058 -114.4306488 157.95045471 C-120.19839689 156.53767637 -126.01380483 156.65428101 -131.92211914 156.60522461 C-133.2035379 156.58703171 -134.48495667 156.56883881 -135.8052063 156.5500946 C-139.313907 156.5004494 -142.82264915 156.46238453 -146.33151174 156.42628551 C-150.05853898 156.38579278 -153.78541137 156.33409951 -157.51231384 156.28358459 C-164.6170851 156.18889121 -171.72193485 156.10349161 -178.82686561 156.02173859 C-191.35046968 155.87721965 -203.87384941 155.71429146 -216.39724708 155.55302656 C-220.23996273 155.50359797 -224.0826843 155.45475602 -227.92542267 155.40712357 C-245.50116436 155.18923388 -263.07243071 154.9165139 -280.64453125 154.48828125 C-299.57572069 154.02945769 -318.50658077 153.85520539 -337.44218534 153.70656425 C-343.87577167 153.65603349 -350.30931316 153.60151568 -356.74284363 153.54432678 C-358.11610604 153.53216791 -358.11610604 153.53216791 -359.51711112 153.51976341 C-363.24675158 153.48670466 -366.97639124 153.45356315 -370.70602763 153.42004764 C-381.23120697 153.32565747 -391.75632263 153.24010315 -402.28173828 153.17675781 C-410.78190663 153.12552994 -419.28173421 153.05694363 -427.78159273 152.96783805 C-432.24289474 152.92173269 -436.7038734 152.88436649 -441.16539383 152.86847687 C-445.32119986 152.85353777 -449.47615664 152.81570254 -453.63161087 152.76004791 C-455.15173649 152.7437844 -456.67198004 152.73599134 -458.19219208 152.73731995 C-460.26678091 152.73788803 -462.33879468 152.70797304 -464.41299438 152.67047119 C-465.57148203 152.66163029 -466.72996967 152.65278938 -467.923563 152.64368057 C-471.93217931 151.80496083 -473.4425957 150.12663398 -476 147 C-476.75 144.5625 -476.75 144.5625 -476 142 C-472.94426655 138.40555467 -469.7786306 135.71339827 -464.98638916 135.23300171 C-463.48390728 135.19461272 -461.9803769 135.18839747 -460.47753906 135.20849609 C-459.64084938 135.19579807 -458.8041597 135.18310005 -457.94211578 135.17001724 C-455.13277657 135.13462282 -452.32515607 135.14171473 -449.515625 135.1484375 C-447.47208399 135.13141725 -445.42856356 135.11175697 -443.3850708 135.08969116 C-437.77043534 135.03655755 -432.15620671 135.0202947 -426.54135132 135.01011658 C-420.5801488 134.99308721 -414.61923093 134.94254333 -408.65820312 134.89550781 C-398.13311229 134.81698338 -387.60802705 134.75791471 -377.08276367 134.70996094 C-319.84012976 134.44600841 -262.5989785 133.90557877 -205.3626194 133.01320839 C-203.44466791 132.98330704 -201.52671633 132.95341188 -199.60876465 132.92352295 C-198.66349171 132.90877737 -197.71821877 132.89403179 -196.7443012 132.87883937 C-190.10833666 132.77650225 -183.47227536 132.68667692 -176.83605957 132.60235596 C-168.70982436 132.4988786 -160.58405663 132.37833167 -152.45840079 132.23626912 C-148.29159283 132.16380186 -144.12502803 132.09857227 -139.9578228 132.05377579 C-116.51747193 131.96085879 -116.51747193 131.96085879 -94 126 C-92.31300885 125.4151967 -90.62563177 124.8315025 -88.9375 124.25 C-62.63930378 113.09454709 -41.03636385 93.75611852 -27 69 C-26.39913574 67.98752197 -26.39913574 67.98752197 -25.78613281 66.95458984 C-22.62926124 61.51881437 -20.44547907 56.09021598 -18.5 50.125 C-14.92718493 39.5300214 -14.92718493 39.5300214 -12.5 34.5 C-7.23328267 23.51313934 -3.82859656 11.54838253 0 0 Z " fill="#F9AC3F" transform="translate(1739,179)"/>
<path d="M0 0 C5.00600922 0.54681024 8.97181067 2.24140333 13.375 4.5625 C14.01566406 4.89185547 14.65632813 5.22121094 15.31640625 5.56054688 C16.88138632 6.36639482 18.44124021 7.18218493 20 8 C19.37971924 8.86189941 18.75943848 9.72379883 18.12036133 10.61181641 C16.06111548 13.90234189 15.05074273 16.4819798 14.07421875 20.2109375 C13.74470215 21.43651367 13.41518555 22.66208984 13.07568359 23.92480469 C12.90309021 24.58218628 12.73049683 25.23956787 12.55267334 25.91687012 C11.76899717 28.87069317 10.9411504 31.81164639 10.11550903 34.75396729 C9.23118916 37.90673136 8.35622934 41.06206726 7.48071289 44.21728516 C6.80367657 46.65679273 6.1255155 49.09598583 5.44726562 51.53515625 C5.01295455 53.09893993 4.57870734 54.66274134 4.14453125 56.2265625 C3.94350296 56.94945465 3.74247467 57.6723468 3.53535461 58.41714478 C3.01968614 60.27702412 2.50953482 62.13843093 2 64 C1.79568359 64.71269043 1.59136719 65.42538086 1.38085938 66.15966797 C-1.05344659 77.92235921 -0.5246394 93.22242478 5 104 C5.36222656 104.71542969 5.72445313 105.43085938 6.09765625 106.16796875 C7.27734269 108.23541922 8.57089547 110.09709531 10 112 C10.52980469 112.73992187 11.05960938 113.47984375 11.60546875 114.2421875 C17.2087212 121.33884412 23.83850225 124.47992749 32 128 C33.16110794 128.51789345 33.16110794 128.51789345 34.34567261 129.04624939 C37.22121645 130.0794873 39.69624984 130.42038663 42.73876953 130.67016602 C43.87251007 130.76689102 45.00625061 130.86361603 46.17434692 130.96327209 C47.39814056 131.05918137 48.6219342 131.15509064 49.8828125 131.25390625 C51.16566132 131.35968491 52.44851013 131.46546356 53.77023315 131.57444763 C56.49846091 131.79871594 59.22705842 132.01746836 61.95605469 132.23217773 C65.36623225 132.50077091 68.77528956 132.78126028 72.18416214 133.06588173 C75.5207055 133.34325302 78.85787836 133.6124885 82.1953125 133.87890625 C82.85409645 133.93175404 83.5128804 133.98460182 84.1916275 134.03905106 C91.40687523 134.6098041 98.60266104 135.05519112 105.83886719 135.23388672 C107.69570633 135.28052711 107.69570633 135.28052711 109.59005737 135.32810974 C111.92041614 135.37630186 114.25122676 135.40700036 116.58206177 135.41712952 C124.23041061 135.56111652 124.23041061 135.56111652 128.19580078 137.82250977 C130 140 130 140 130.6875 143.4375 C129.95659491 147.22491727 128.96575009 148.62423706 125.99609375 151.0546875 C121.07288656 153.38622593 115.12828803 153.14842088 109.7734375 153.28125 C109.10390045 153.29965942 108.4343634 153.31806885 107.74453735 153.33703613 C105.62143818 153.3951635 103.49826089 153.44814222 101.375 153.5 C92.62084603 153.71707867 83.91515202 154.04101703 75.18505859 154.77246094 C70.67973934 155.09431879 66.17715595 155.1870605 61.66235352 155.2902832 C50.46252654 155.55851013 39.84405456 155.99293702 29 159 C27.85660156 159.31195313 26.71320313 159.62390625 25.53515625 159.9453125 C19.10199542 161.81704543 13.02623482 164.08513642 7 167 C6.2471875 167.33386719 5.494375 167.66773438 4.71875 168.01171875 C-8.186779 173.98262097 -18.85080014 183.2212089 -29 193 C-29.72832031 193.66515625 -30.45664063 194.3303125 -31.20703125 195.015625 C-43.83598522 206.8723944 -58.42637935 230.028748 -60.28125 247.67578125 C-60.08495964 250.39095649 -60.08495964 250.39095649 -58 254 C-67.9 253.67 -77.8 253.34 -88 253 C-86.35 249.7 -84.7 246.4 -83 243 C-81.88263696 239.9593253 -81.88263696 239.9593253 -81.234375 237.203125 C-80.98429687 236.22472656 -80.73421875 235.24632812 -80.4765625 234.23828125 C-80.23679687 233.25214844 -79.99703125 232.26601563 -79.75 231.25 C-79.49476563 230.24839844 -79.23953125 229.24679687 -78.9765625 228.21484375 C-74.96179293 212.2614173 -74.02282705 196.16561077 -81.75 181.0625 C-89.17179076 168.66865382 -100.91432584 162.08553058 -114.4306488 157.95045471 C-120.19839689 156.53767637 -126.01380483 156.65428101 -131.92211914 156.60522461 C-133.2035379 156.58703171 -134.48495667 156.56883881 -135.8052063 156.5500946 C-139.313907 156.5004494 -142.82264915 156.46238453 -146.33151174 156.42628551 C-150.05853898 156.38579278 -153.78541137 156.33409951 -157.51231384 156.28358459 C-164.6170851 156.18889121 -171.72193485 156.10349161 -178.82686561 156.02173859 C-191.35046968 155.87721965 -203.87384941 155.71429146 -216.39724708 155.55302656 C-220.23996273 155.50359797 -224.0826843 155.45475602 -227.92542267 155.40712357 C-245.50116436 155.18923388 -263.07243071 154.9165139 -280.64453125 154.48828125 C-299.57572069 154.02945769 -318.50658077 153.85520539 -337.44218534 153.70656425 C-343.87577167 153.65603349 -350.30931316 153.60151568 -356.74284363 153.54432678 C-358.11610604 153.53216791 -358.11610604 153.53216791 -359.51711112 153.51976341 C-363.24675158 153.48670466 -366.97639124 153.45356315 -370.70602763 153.42004764 C-381.23120697 153.32565747 -391.75632263 153.24010315 -402.28173828 153.17675781 C-410.78190663 153.12552994 -419.28173421 153.05694363 -427.78159273 152.96783805 C-432.24289474 152.92173269 -436.7038734 152.88436649 -441.16539383 152.86847687 C-445.32119986 152.85353777 -449.47615664 152.81570254 -453.63161087 152.76004791 C-455.15173649 152.7437844 -456.67198004 152.73599134 -458.19219208 152.73731995 C-460.26678091 152.73788803 -462.33879468 152.70797304 -464.41299438 152.67047119 C-465.57148203 152.66163029 -466.72996967 152.65278938 -467.923563 152.64368057 C-471.93217931 151.80496083 -473.4425957 150.12663398 -476 147 C-476.75 144.5625 -476.75 144.5625 -476 142 C-472.94426655 138.40555467 -469.7786306 135.71339827 -464.98638916 135.23300171 C-463.48390728 135.19461272 -461.9803769 135.18839747 -460.47753906 135.20849609 C-459.64084938 135.19579807 -458.8041597 135.18310005 -457.94211578 135.17001724 C-455.13277657 135.13462282 -452.32515607 135.14171473 -449.515625 135.1484375 C-447.47208399 135.13141725 -445.42856356 135.11175697 -443.3850708 135.08969116 C-437.77043534 135.03655755 -432.15620671 135.0202947 -426.54135132 135.01011658 C-420.5801488 134.99308721 -414.61923093 134.94254333 -408.65820312 134.89550781 C-398.13311229 134.81698338 -387.60802705 134.75791471 -377.08276367 134.70996094 C-319.84012976 134.44600841 -262.5989785 133.90557877 -205.3626194 133.01320839 C-203.44466791 132.98330704 -201.52671633 132.95341188 -199.60876465 132.92352295 C-198.66349171 132.90877737 -197.71821877 132.89403179 -196.7443012 132.87883937 C-190.10833666 132.77650225 -183.47227536 132.68667692 -176.83605957 132.60235596 C-168.70982436 132.4988786 -160.58405663 132.37833167 -152.45840079 132.23626912 C-148.29159283 132.16380186 -144.12502803 132.09857227 -139.9578228 132.05377579 C-116.51747193 131.96085879 -116.51747193 131.96085879 -94 126 C-92.31300885 125.4151967 -90.62563177 124.8315025 -88.9375 124.25 C-62.63930378 113.09454709 -41.03636385 93.75611852 -27 69 C-26.39913574 67.98752197 -26.39913574 67.98752197 -25.78613281 66.95458984 C-22.62926124 61.51881437 -20.44547907 56.09021598 -18.5 50.125 C-14.92718493 39.5300214 -14.92718493 39.5300214 -12.5 34.5 C-7.23328267 23.51313934 -3.82859656 11.54838253 0 0 Z " fill="#FEFDFB" transform="translate(1739,179)"/>
<path d="M0 0 C21.470625 -0.12375 21.470625 -0.12375 43.375 -0.25 C47.85755371 -0.28641602 52.34010742 -0.32283203 56.95849609 -0.36035156 C62.52661133 -0.37841797 62.52661133 -0.37841797 65.15151978 -0.3817749 C66.94493609 -0.38782845 68.73833846 -0.40170661 70.53164673 -0.42230225 C92.19198787 -0.65814564 111.57682127 2.0759371 127.84765625 17.6875 C135.99427593 26.44031098 140.53267076 37.03230763 141 49 C141.03996094 49.85207031 141.07992188 50.70414063 141.12109375 51.58203125 C141.47599646 66.17479555 138.05051193 79.93616485 128 91 C127.34 91 126.68 91 126 91 C126 91.66 126 92.32 126 93 C123.92513234 94.58648939 121.85806633 96.05603132 119.6875 97.5 C119.09259766 97.90347656 118.49769531 98.30695313 117.88476562 98.72265625 C115.26592076 100.49586294 112.63150863 102.24566091 110 104 C110.42667969 104.57363281 110.85335938 105.14726563 111.29296875 105.73828125 C120.31695659 117.99974102 128.81672797 130.64136933 137.2109375 143.33984375 C139.64683139 146.96177331 142.18828799 150.50527227 144.75 154.0390625 C146 156 146 156 146 158 C138.63703099 158.40762243 131.27698408 158.68658403 123.90527344 158.87890625 C121.40188959 158.95909731 118.8992491 159.06809727 116.3984375 159.20703125 C96.35670224 160.29209335 96.35670224 160.29209335 91.00061035 156.63473511 C87.63237528 153.02581044 85.76682838 148.78786393 83.94818115 144.24725342 C82.40761458 140.59600652 80.34944485 137.28223456 78.28125 133.91015625 C77.88630341 133.2601767 77.49135681 132.61019714 77.08444214 131.94052124 C76.28997157 130.63483072 75.49164854 129.33147636 74.68945312 128.03051758 C73.88831386 126.70498728 73.10991309 125.36547717 72.35351562 124.01391602 C71.97388672 123.33965576 71.59425781 122.66539551 71.203125 121.97070312 C70.87538086 121.37302124 70.54763672 120.77533936 70.20996094 120.1595459 C68.14277199 117.17621639 65.49722279 114.63389511 63 112 C57.06 111.67 51.12 111.34 45 111 C45 126.51 45 142.02 45 158 C30.15 158 15.3 158 0 158 C0 105.86 0 53.72 0 0 Z M45 39 C45 50.88 45 62.76 45 75 C53.105625 75.12375 53.105625 75.12375 61.375 75.25 C63.90099854 75.30462402 63.90099854 75.30462402 66.47802734 75.36035156 C74.56885516 75.46230958 81.86054498 75.37486411 89 71 C93.00077251 66.99922749 95.28354974 62.93710372 95.4375 57.25 C95.29227173 51.77973535 93.89501392 47.90403016 90 44 C83.11465327 39.63337386 75.87321405 38.86806319 67.8515625 38.90234375 C66.64838379 38.90484131 65.44520508 38.90733887 64.20556641 38.90991211 C62.69397949 38.91901611 61.18239258 38.92812012 59.625 38.9375 C52.385625 38.9684375 52.385625 38.9684375 45 39 Z " fill="#3F4141" transform="translate(1602,505)"/>
<path d="M0 0 C15.02779578 13.00972151 25.47427184 32.23825397 27.5625 52.0625 C27.66672107 53.81138033 27.75111149 55.56159284 27.8125 57.3125 C27.85246094 58.09625 27.89242187 58.88 27.93359375 59.6875 C28.56564422 82.2925992 20.53184441 102.67317784 5.0390625 119.09765625 C1.76669102 122.35280472 -1.5927533 125.41735204 -5.1875 128.3125 C-5.73792969 128.76238281 -6.28835938 129.21226562 -6.85546875 129.67578125 C-25.41812964 143.9174427 -51.33016352 146.36014796 -73.78710938 144.04443359 C-88.46484272 141.8327632 -103.12868108 135.18408985 -114.1875 125.3125 C-114.90808594 124.74402344 -115.62867188 124.17554688 -116.37109375 123.58984375 C-126.36407525 115.43266128 -133.62766371 104.31010205 -138.1875 92.3125 C-138.48140625 91.56742188 -138.7753125 90.82234375 -139.078125 90.0546875 C-146.75561254 69.054501 -144.08676966 46.36690071 -135.1875 26.3125 C-127.8681502 11.01505892 -115.34287806 -1.76059621 -100.29296875 -9.58203125 C-98.10365223 -10.69805992 -98.10365223 -10.69805992 -95.7734375 -12.1953125 C-66.42254789 -29.13192856 -25.09599735 -19.8226612 0 0 Z M-88.1875 35.3125 C-95.54374944 45.92629856 -97.28564551 56.56028523 -96.1875 69.3125 C-93.52535091 82.75937805 -87.49955967 91.66921644 -76.1875 99.3125 C-67.30866936 104.35372211 -55.74696066 104.77249737 -46 102.1875 C-35.87646258 98.6994222 -27.90834929 91.75002991 -22.875 82.3125 C-17.82446759 71.04092552 -17.40500038 58.49730594 -21.3125 46.8125 C-23.45664705 41.47351275 -25.94911036 36.31473303 -30.1875 32.3125 C-30.8475 32.3125 -31.5075 32.3125 -32.1875 32.3125 C-32.1875 31.6525 -32.1875 30.9925 -32.1875 30.3125 C-40.83852621 23.00718898 -50.15750984 20.50943179 -61.41015625 20.875 C-72.39897604 22.14774852 -81.0139504 26.93254874 -88.1875 35.3125 Z " fill="#3F4141" transform="translate(520.1875,521.6875)"/>
<path d="M0 0 C104.49862054 0 104.49862054 0 129.58203125 23.48828125 C136.86465082 31.0532641 142.23226969 39.21581496 146 49 C146.44279297 50.06927734 146.44279297 50.06927734 146.89453125 51.16015625 C154.35717017 70.82770216 152.20560789 94.23450898 143.84863281 113.19433594 C134.95749677 132.11229973 118.98569375 144.58103417 99.96484375 152.21875 C67.75025176 163.66511916 34.03766131 158 0 158 C0 105.86 0 53.72 0 0 Z M45 40 C45 65.74 45 91.48 45 118 C71.15562387 118.73187214 71.15562387 118.73187214 93.109375 107.03125 C101.06663932 98.78357457 103.69035514 90.32613084 103.5 79 C103.51546875 78.07960938 103.5309375 77.15921875 103.546875 76.2109375 C103.49302412 66.65240718 100.59107615 58.78275573 93.9765625 51.81640625 C79.70702451 38.70309565 63.65927265 40 45 40 Z " fill="#3F4141" transform="translate(810,505)"/>
<path d="M0 0 C41.91 0 83.82 0 127 0 C127 12.87 127 25.74 127 39 C99.94 39 72.88 39 45 39 C45 45.93 45 52.86 45 60 C69.75 60 94.5 60 120 60 C120 71.88 120 83.76 120 96 C119 97 119 97 116.07041931 97.12025452 C114.75803787 97.11803391 113.44565643 97.11581329 112.09350586 97.11352539 C111.37159561 97.11367142 110.64968536 97.11381744 109.90589905 97.1139679 C107.50885053 97.11326869 105.11187877 97.10547595 102.71484375 97.09765625 C101.05717511 97.0957921 99.39950593 97.09436818 97.74183655 97.09336853 C93.37045786 97.08954312 88.99911219 97.07971265 84.62774658 97.06866455 C80.17045539 97.05845092 75.71315889 97.05387101 71.25585938 97.04882812 C62.50388938 97.0380904 53.7519526 97.02049342 45 97 C45 104.26 45 111.52 45 119 C47.50907959 118.99476318 50.01815918 118.98952637 52.60327148 118.98413086 C60.87342883 118.96759529 69.1435869 118.95652891 77.41375637 118.94818783 C82.4302247 118.94295893 87.44667615 118.93586117 92.46313477 118.92456055 C97.30009694 118.9137319 102.13704284 118.90772321 106.97401619 118.90512276 C108.82368285 118.90326847 110.67334857 118.89964778 112.52300835 118.89426994 C115.10447014 118.8870598 117.68586382 118.88600905 120.26733398 118.88647461 C121.03985001 118.88287933 121.81236603 118.87928406 122.60829163 118.87557983 C127.88594784 118.88594784 127.88594784 118.88594784 129 120 C129 132.54 129 145.08 129 158 C86.43 158 43.86 158 0 158 C0 105.86 0 53.72 0 0 Z " fill="#3F4141" transform="translate(1803,505)"/>
<path d="M0 0 C15.51 0 31.02 0 47 0 C47.03738281 6.88617188 47.07476563 13.77234375 47.11328125 20.8671875 C47.14357434 25.24221204 47.17473105 29.61719655 47.20898438 33.9921875 C47.26321339 40.92901543 47.31432732 47.86576419 47.34643555 54.80273438 C47.37253654 60.39849171 47.41298716 65.9939817 47.46318626 71.58957291 C47.47980904 73.71924629 47.49135178 75.84896587 47.49761391 77.97869492 C47.50730495 80.9728949 47.535424 83.96641791 47.56762695 86.96044922 C47.56619186 87.8315181 47.56475677 88.70258698 47.5632782 89.60005188 C47.70285993 98.83918528 49.69943752 106.63061137 56.171875 113.375 C61.88471556 118.4530805 68.43407691 119.30019077 75.86328125 119.14453125 C83.59932129 118.62125249 89.47289942 116.62736544 95 111 C103.15444583 99.94189394 101.33872149 83.77783745 101.4140625 70.80078125 C101.43279923 68.75383241 101.45237446 66.70689109 101.4727478 64.65995789 C101.52381048 59.3056789 101.56357376 53.95137494 101.60089111 48.59698486 C101.64817821 42.15480567 101.70966402 35.71274786 101.76873779 29.27066803 C101.85663425 19.51382839 101.92662452 9.75700828 102 0 C117.18 0 132.36 0 148 0 C148.16043524 24.48419983 148.16043524 24.48419983 148.1953125 35.0234375 C148.21910609 42.17915908 148.24707222 49.33467348 148.30175781 56.49023438 C148.34562687 62.2674548 148.36922276 68.04445263 148.37950897 73.82182693 C148.38682735 76.01194379 148.40111529 78.20205024 148.42292023 80.39207077 C148.64570839 103.72324797 145.83047237 126.16981317 128.76953125 143.59765625 C109.47593724 160.33328434 85.52455828 162.68268469 61 161 C50.51931235 159.80354166 40.17167674 157.34099139 31 152 C29.93265625 151.38511719 28.8653125 150.77023437 27.765625 150.13671875 C13.205211 141.20215797 6.90561656 127.33106681 1.83203125 111.50390625 C-0.01311757 103.73349078 -0.14600449 95.82220995 -0.11352539 87.86865234 C-0.11367142 86.91134216 -0.11381744 85.95403198 -0.1139679 84.9677124 C-0.11327776 81.8404301 -0.10552796 78.71320925 -0.09765625 75.5859375 C-0.09578887 73.40304599 -0.09436648 71.22015405 -0.09336853 69.03726196 C-0.08956855 63.31958845 -0.07976002 57.60194073 -0.06866455 51.88427734 C-0.05658746 45.00918613 -0.05203619 38.13408624 -0.04621124 31.25898743 C-0.03654673 20.83930706 -0.01737257 10.4196832 0 0 Z " fill="#3F4141" transform="translate(598,505)"/>
<path d="M0 0 C1.04841064 0.00491455 2.09682129 0.0098291 3.17700195 0.01489258 C26.57147168 0.36616089 47.46608053 9.07504336 63.88183594 25.84619141 C74.43890728 37.16056873 81.80308071 50.97321024 84.25 66.3125 C83.25 67.3125 83.25 67.3125 81.34544373 67.43275452 C80.51271439 67.43053391 79.67998505 67.42831329 78.82202148 67.42602539 C77.88112167 67.42594986 76.94022186 67.42587433 75.97080994 67.42579651 C74.94790359 67.42063522 73.92499725 67.41547394 72.87109375 67.41015625 C71.82929459 67.4087413 70.78749542 67.40732635 69.71412659 67.40586853 C66.37188906 67.4002508 63.02971743 67.3876953 59.6875 67.375 C57.42773534 67.36998728 55.16796963 67.36542398 52.90820312 67.36132812 C47.35544609 67.35027561 41.80272775 67.33352024 36.25 67.3125 C35.85312988 66.56266846 35.45625977 65.81283691 35.04736328 65.0402832 C34.51868652 64.05374756 33.99000977 63.06721191 33.4453125 62.05078125 C32.92469238 61.07407471 32.40407227 60.09736816 31.86767578 59.09106445 C26.83901101 50.45369141 18.68808156 45.78683139 9.32421875 42.671875 C-2.4016329 40.64027735 -12.7014629 42.41351677 -22.50390625 49.2265625 C-29.80374587 55.2100376 -33.78997336 62.43242007 -36.75 71.3125 C-37.98332489 85.90145759 -37.38563341 98.70604898 -27.671875 110.30859375 C-20.85073794 117.4208769 -12.87336253 121.89001091 -2.91796875 122.48046875 C7.94664409 122.55166543 16.22227739 120.73279619 25.25 114.3125 C29.40876693 110.03914792 32.58570318 105.64109364 35.25 100.3125 C51.09 100.3125 66.93 100.3125 83.25 100.3125 C79.66822977 114.6395809 75.15360541 125.39869076 65.25 136.3125 C64.51136719 137.14394531 63.77273437 137.97539063 63.01171875 138.83203125 C48.20083375 154.61253229 27.91002204 163.67532049 6.33984375 164.62890625 C-19.45267223 165.3206218 -41.84347028 159.07851702 -61.04125977 141.12963867 C-74.1532698 128.33958846 -83.65519896 110.28684922 -84.0859375 91.8046875 C-84.11118932 89.662551 -84.12108451 87.52119061 -84.12060547 85.37890625 C-84.12494942 83.21272333 -84.16126514 81.04863253 -84.19921875 78.8828125 C-84.35772491 59.4641449 -77.47707673 42.98143999 -64.75 28.3125 C-64.12996094 27.49523437 -63.50992188 26.67796875 -62.87109375 25.8359375 C-47.88796765 8.01070829 -22.51097492 -0.12594318 0 0 Z " fill="#3F4141" transform="translate(83.75,501.6875)"/>
<path d="M0 0 C14.52 0 29.04 0 44 0 C48.43596767 9.505645 52.74465933 18.94795951 56.75 28.625 C57.88648107 31.35480912 59.02542919 34.08358803 60.1640625 36.8125 C60.46597504 37.53692291 60.76788757 38.26134583 61.07894897 39.00772095 C64.6662532 47.61025159 68.29486889 56.19531257 71.92303467 64.78067017 C73.13091689 67.63900171 74.33823417 70.49757129 75.54541016 73.35620117 C79.30918708 82.26818831 83.07526413 91.17919757 86.84524536 100.08856201 C88.53404152 104.080057 90.22187418 108.07195908 91.90960693 112.06390381 C92.70164418 113.93654508 93.4941426 115.80899138 94.28717041 117.68121338 C98.5947737 127.85096857 102.86035126 138.03684424 107.0546875 148.25390625 C107.44971466 149.21352768 107.84474182 150.17314911 108.2517395 151.16184998 C108.61194183 152.04244583 108.97214417 152.92304169 109.34326172 153.83032227 C109.66382538 154.61270767 109.98438904 155.39509308 110.31466675 156.20118713 C111 158 111 158 111 159 C94.83 159 78.66 159 62 159 C55.19014085 144.24530516 55.19014085 144.24530516 53.125 138.8125 C52.71507812 137.74644531 52.30515625 136.68039062 51.8828125 135.58203125 C51 133 51 133 51 131 C31.53 131 12.06 131 -8 131 C-8.33 132.65 -8.66 134.3 -9 136 C-9.63610546 137.77047112 -10.31606501 139.5255938 -11.03125 141.265625 C-11.42957031 142.23757813 -11.82789063 143.20953125 -12.23828125 144.2109375 C-12.65464844 145.21382812 -13.07101562 146.21671875 -13.5 147.25 C-13.91636719 148.26835938 -14.33273437 149.28671875 -14.76171875 150.3359375 C-17.86277636 157.86277636 -17.86277636 157.86277636 -19 159 C-20.47354348 159.09304018 -21.95150591 159.11746265 -23.42797852 159.11352539 C-24.36887833 159.11344986 -25.30977814 159.11337433 -26.27919006 159.11329651 C-27.30209641 159.10813522 -28.32500275 159.10297394 -29.37890625 159.09765625 C-30.941605 159.09553383 -30.941605 159.09553383 -32.53587341 159.09336853 C-35.87811094 159.0877508 -39.22028257 159.0751953 -42.5625 159.0625 C-44.82226466 159.05748728 -47.08203037 159.05292398 -49.34179688 159.04882812 C-54.89455391 159.03777561 -60.44727225 159.02102024 -66 159 C-65.39634719 153.53598606 -63.50481087 149.04753026 -61.31640625 144.0703125 C-60.75956902 142.78156471 -60.75956902 142.78156471 -60.19148254 141.46678162 C-58.98768556 138.68360524 -57.77500914 135.90439032 -56.5625 133.125 C-55.3185056 130.25303856 -54.07698067 127.3800182 -52.83563232 124.50691223 C-52.01772431 122.61416839 -51.19908395 120.72174085 -50.37969971 118.82963562 C-47.32128373 111.76360361 -44.31930707 104.67695406 -41.375 97.5625 C-40.98610596 96.62414307 -40.59721191 95.68578613 -40.1965332 94.71899414 C-39.46685989 92.9573701 -38.73758642 91.19558036 -38.00878906 89.43359375 C-35.04108424 82.27432907 -32.01902187 75.13773543 -29 68 C-28.5157959 66.85515137 -28.0315918 65.71030273 -27.53271484 64.53076172 C-18.42014178 42.99246316 -9.22297822 21.49127943 0 0 Z M21 56 C20.53158691 57.19375244 20.53158691 57.19375244 20.05371094 58.41162109 C18.87607338 61.4123741 17.69814089 64.41301113 16.52001953 67.41357422 C16.01371955 68.70324259 15.5075314 69.99295486 15.00146484 71.28271484 C14.50980127 72.53572677 14.01798094 73.7886772 13.52600098 75.04156494 C12.8040739 76.88010399 12.08269822 78.71885953 11.36132812 80.55761719 C9.8304303 84.42878995 8.2624995 88.28395049 6.67285156 92.13134766 C5.8870732 93.98260526 5.8870732 93.98260526 6 96 C16.23 96 26.46 96 37 96 C36.20895762 92.04478808 35.29078047 88.85891333 33.85546875 85.140625 C33.42556641 84.02429688 32.99566406 82.90796875 32.55273438 81.7578125 C32.10220703 80.60023438 31.65167969 79.44265625 31.1875 78.25 C30.52911133 76.53683594 30.52911133 76.53683594 29.85742188 74.7890625 C27.40394712 68.44575481 24.84686424 62.17740438 22 56 C21.67 56 21.34 56 21 56 Z " fill="#3F4141" transform="translate(1438,504)"/>
<path d="M0 0 C41.91 0 83.82 0 127 0 C127 13.2 127 26.4 127 40 C100.27 40 73.54 40 46 40 C46 47.92 46 55.84 46 64 C48.2061499 63.99476318 50.4122998 63.98952637 52.68530273 63.98413086 C59.95761098 63.96759404 67.22992005 63.95652841 74.50224209 63.94818783 C78.91337004 63.94295931 83.3244788 63.93586223 87.7355957 63.92456055 C91.98901115 63.91373056 96.24240809 63.90772293 100.49583626 63.90512276 C102.12221633 63.90326871 103.74859534 63.89964848 105.37496758 63.89426994 C107.64510193 63.88705802 109.91515885 63.88600912 112.18530273 63.88647461 C114.12722755 63.88314369 114.12722755 63.88314369 116.10838318 63.87974548 C119 64 119 64 120 65 C120 77.21 120 89.42 120 102 C95.58 102 71.16 102 46 102 C46 120.48 46 138.96 46 158 C30.82 158 15.64 158 0 158 C0 105.86 0 53.72 0 0 Z " fill="#3F4141" transform="translate(1021,505)"/>
<path d="M0 0 C15.18 0 30.36 0 46 0 C46 38.94 46 77.88 46 118 C70.75 118 95.5 118 121 118 C121 131.2 121 144.4 121 158 C81.07 158 41.14 158 0 158 C0 105.86 0 53.72 0 0 Z " fill="#3F4141" transform="translate(1206,505)"/>
<path d="M0 0 C14.85 0 29.7 0 45 0 C45 38.94 45 77.88 45 118 C70.08 118 95.16 118 121 118 C121 131.2 121 144.4 121 158 C81.07 158 41.14 158 0 158 C0 105.86 0 53.72 0 0 Z " fill="#3F4141" transform="translate(214,505)"/>
<path d="M0 0 C4.09864221 2.42572702 6.54786743 4.67313899 8.60546875 9.05859375 C9.0390625 12.6171875 9.0390625 12.6171875 9.04296875 16.49609375 C9.06230469 17.77355469 9.08164063 19.05101562 9.1015625 20.3671875 C8.52767347 24.63746417 7.30365561 26.73924156 4.60546875 30.05859375 C-0.3941562 33.68577264 -5.14660577 35.48948516 -11.39453125 35.05859375 C-16.71382425 33.58316941 -20.87224333 30.42204381 -24.265625 26.11328125 C-27.00418342 21.12891541 -26.60770548 15.85534801 -25.95703125 10.37109375 C-23.7854126 5.76726221 -20.5319371 2.95887429 -16.39453125 0.05859375 C-11.12145443 -1.69909852 -5.23763712 -2.05916892 0 0 Z M-14.39453125 6.05859375 C-10.76453125 6.05859375 -7.13453125 6.05859375 -3.39453125 6.05859375 C-3.72453125 5.39859375 -4.05453125 4.73859375 -4.39453125 4.05859375 C-9.98117971 3.45437844 -9.98117971 3.45437844 -14.39453125 6.05859375 Z M-17.39453125 7.05859375 C-19.63187894 10.32139246 -21.20480689 13.07438216 -21.39453125 17.05859375 C-20.11152837 20.6632209 -19.11158861 23.34153639 -16.39453125 26.05859375 C-16.39453125 19.78859375 -16.39453125 13.51859375 -16.39453125 7.05859375 C-16.72453125 7.05859375 -17.05453125 7.05859375 -17.39453125 7.05859375 Z M-1.39453125 7.05859375 C-0.86859375 7.86296875 -0.86859375 7.86296875 -0.33203125 8.68359375 C0.91833963 11.85119998 0.43860401 13.79548064 -0.39453125 17.05859375 C-1.05453125 18.04859375 -1.71453125 19.03859375 -2.39453125 20.05859375 C-1.07453125 21.70859375 0.24546875 23.35859375 1.60546875 25.05859375 C4.43673803 20.81168983 4.13742572 17.04469786 3.60546875 12.05859375 C2.43659344 8.98508649 2.43659344 8.98508649 0.60546875 7.05859375 C-0.05453125 7.05859375 -0.71453125 7.05859375 -1.39453125 7.05859375 Z M-10.39453125 11.05859375 C-10.39453125 12.37859375 -10.39453125 13.69859375 -10.39453125 15.05859375 C-8.74453125 15.05859375 -7.09453125 15.05859375 -5.39453125 15.05859375 C-5.06453125 13.73859375 -4.73453125 12.41859375 -4.39453125 11.05859375 C-6.37453125 11.05859375 -8.35453125 11.05859375 -10.39453125 11.05859375 Z M-10.39453125 20.05859375 C-10.49765625 21.00734375 -10.60078125 21.95609375 -10.70703125 22.93359375 C-11.39453125 26.05859375 -11.39453125 26.05859375 -14.39453125 28.05859375 C-10.87393557 29.23212564 -8.08803825 29.26005777 -4.39453125 29.05859375 C-3.73453125 28.39859375 -3.07453125 27.73859375 -2.39453125 27.05859375 C-3.07515625 26.43984375 -3.07515625 26.43984375 -3.76953125 25.80859375 C-5.45403499 23.9945128 -6.38719096 22.30573748 -7.39453125 20.05859375 C-8.38453125 20.05859375 -9.37453125 20.05859375 -10.39453125 20.05859375 Z " fill="#3D3F3E" transform="translate(1991.39453125,507.94140625)"/>
</svg>
