<?xml version="1.0" encoding="utf-8"?>
<!-- Generator: Adobe Illustrator 16.0.0, SVG Export Plug-In . SVG Version: 6.00 Build 0)  -->
<!DOCTYPE svg PUBLIC "-//W3C//DTD SVG 1.1//EN" "http://www.w3.org/Graphics/SVG/1.1/DTD/svg11.dtd">
<svg version="1.1" id="Layer_1" xmlns="http://www.w3.org/2000/svg" xmlns:xlink="http://www.w3.org/1999/xlink" x="0px" y="0px"
	 width="1015px" height="1015px" viewBox="0 0 1015 1015" enable-background="new 0 0 1015 1015" xml:space="preserve">
<g id="Artwork">
	<g>
		<path fill="#1573BA" d="M230.994,506.496c-1.247-16.548,4.417-32.875,15.646-45.097c9.474-11.512,23.754-17.972,38.656-17.488
			c4.655,0.099,9.285,0.716,13.805,1.841c3.728,0.587,7.229,2.178,10.123,4.603c2.337,1.606,4.498,3.459,6.443,5.521
			c1.84,1.843,2.762,3.682,4.603,4.602l0.918,1.841h0.922c-0.813-2.68-1.125-5.487-0.922-8.282v-55.222h23.009v166.587h-21.167
			v-19.327h-0.921c-0.922,0.919-0.922,0.919-0.922,2.76c-1.435,1.921-2.97,3.765-4.601,5.525c-2.003,2.612-4.507,4.799-7.364,6.438
			c-3.485,2.207-7.185,4.058-11.042,5.524c-5,1.881-10.306,2.819-15.648,2.76c-14.9,0.482-29.182-5.979-38.654-17.487
			C234.867,538.329,230.35,522.522,230.994,506.496z M254.003,506.496c-0.622,11.177,2.628,22.229,9.202,31.291
			c5.678,7.995,15.062,12.514,24.85,11.968c9.492,0.079,18.551-3.95,24.851-11.047c7.295-9.089,10.907-20.583,10.125-32.212
			c0.243-10.713-2.635-21.265-8.285-30.371c-5.572-8.222-14.921-13.069-24.849-12.885c-9.707-0.146-18.911,4.288-24.85,11.965
			C257.352,483.753,253.378,495.014,254.003,506.496z"/>
		<path fill="#1573BA" d="M363.526,422.743v-23.008h23.01v23.008H363.526z M363.526,566.322V446.673h23.01v119.649H363.526z"/>
		<path fill="#1573BA" d="M421.508,587.486c9.874,5.418,20.952,8.268,32.214,8.285c9.864,0.361,19.574-2.552,27.611-8.285
			c6.945-6.333,10.666-15.462,10.122-24.85v-15.644h-0.918c-7.649,12.292-21.449,19.368-35.895,18.408
			c-14.939,0.688-29.308-5.812-38.655-17.488c-9.983-12.162-15.217-27.53-14.727-43.256c-0.667-15.601,4.225-30.929,13.807-43.258
			c9.351-11.044,23.274-17.158,37.734-16.567c4.96,0.101,9.895,0.718,14.727,1.84c4.6,0.491,9.017,2.068,12.884,4.603
			c2.337,1.607,4.497,3.458,6.443,5.521c1.497,1.296,2.747,2.854,3.681,4.603l0.918,1.841h0.923v-16.567h22.088v114.125
			c-0.018,8.493-1.579,16.916-4.6,24.852c-3.026,6.665-7.797,12.391-13.808,16.565c-5.649,4.507-12.266,7.66-19.327,9.205
			c-7.2,1.938-14.636,2.865-22.09,2.761c-14.447,0.261-28.717-3.228-41.415-10.127L421.508,587.486z M461.084,545.153
			c8.85,0.513,17.411-3.251,23.008-10.126c6.443-6.441,8.285-17.488,8.285-31.291c0-26.691-11.045-39.576-34.053-39.576
			c-9.088-0.366-17.866,3.347-23.931,10.123c-5.992,8.259-8.921,18.348-8.284,28.532c-0.772,10.913,2.504,21.726,9.206,30.372
			C441.383,541.207,451.039,545.69,461.084,545.153z"/>
		<path fill="#1573BA" d="M533.795,422.743v-23.008h23.009v23.008H533.795z M533.795,566.322V446.673h23.009v119.649H533.795z"/>
		<path fill="#1573BA" d="M573.371,506.496c0.053-16.677,6.283-32.742,17.485-45.097c12.294-11.89,28.93-18.211,46.019-17.488
			c8.523-0.348,17.017,1.224,24.848,4.602c7.363,3.682,12.887,6.443,15.648,8.283l4.602,4.603l-11.045,15.646
			c-1.344-1.446-2.894-2.688-4.602-3.681c-3.385-2.62-7.098-4.784-11.045-6.443c-5.474-2.534-11.452-3.794-17.487-3.681
			c-22.565-0.32-41.116,17.715-41.437,40.281c-0.012,0.685-0.002,1.37,0.021,2.055c-0.775,22.606,16.922,41.562,39.527,42.337
			c0.936,0.031,1.872,0.031,2.811,0c6.739,0.237,13.417-1.353,19.327-4.604c4.95-2.131,9.594-4.917,13.806-8.282l4.602-4.602
			l9.203,16.567l-1.84,1.841c-1.68,1.719-3.529,3.263-5.522,4.602c-2.821,2.712-6.317,4.619-10.126,5.521
			c-4.503,1.811-9.113,3.35-13.805,4.602c-5.764,1.116-11.617,1.732-17.486,1.844c-17.049,0.489-33.597-5.796-46.019-17.488
			C578.811,537.649,572.325,522.292,573.371,506.496z"/>
		<path fill="#1573BA" d="M687.496,506.496c-1.07-16.87,5.322-33.357,17.487-45.097c11.205-11.818,26.985-18.198,43.257-17.488
			c14.25-0.494,28.013,5.213,37.733,15.646c9.407,10.992,14.335,25.118,13.807,39.575l-0.92,10.124h-86.515
			c-0.01,11.189,4.662,21.868,12.884,29.451c8.057,6.572,18.137,10.146,28.532,10.126c6.038,0.206,12.041-1.059,17.486-3.681
			c4.479-1.763,8.789-3.918,12.884-6.445l4.604-3.681l9.2,16.567c-1.675,1.719-3.527,3.262-5.52,4.602
			c-4.952,2.977-10.196,5.445-15.646,7.361c-7.982,2.859-16.372,4.413-24.851,4.604c-16.771,0.462-33.021-5.841-45.098-17.488
			C693.951,539.688,686.829,523.408,687.496,506.496z M712.346,492.69h63.504c0.123-8.419-2.822-16.598-8.283-23.007
			c-5.52-5.129-12.717-8.074-20.248-8.284c-8.438-0.219-16.648,2.736-23.01,8.284C717.37,475.414,713.051,483.718,712.346,492.69z"
			/>
		<path fill="#1573BA" d="M815.425,566.322V446.673h22.09v21.168l-0.923,9.204h0.923c2.563-8.722,7.315-16.642,13.807-23.009
			c6.439-5.412,14.597-8.348,23.007-8.284l6.442,0.92v23.011c-2.061-0.756-4.255-1.07-6.442-0.922
			c-7.366,0.211-14.468,2.794-20.248,7.363c-6.323,5.4-11.089,12.388-13.806,20.249c-1.881,6.896-2.811,14.016-2.76,21.165v48.783
			H815.425z"/>
		<path fill="#1573BA" d="M911.143,523.063v-56.143h-15.646v-18.407h16.566v-34.054h22.088v34.054h28.532v18.407h-28.532v52.462
			c0.092,4.052,0.71,8.072,1.842,11.964c0.754,3.128,2.346,5.989,4.602,8.282c1.742,2.036,3.952,3.615,6.443,4.604
			c2.047,0.921,4.216,1.537,6.442,1.842c2.039,0.822,4.253,1.136,6.443,0.919l5.521-0.919v20.248
			c-2.679,0.812-5.489,1.122-8.282,0.916c-3.708,0.156-7.417-0.157-11.045-0.916c-4.073-0.934-8.072-2.166-11.966-3.686
			c-4.302-1.9-8.326-4.376-11.964-7.361c-3.688-3.622-6.518-8.026-8.282-12.887C911.512,536.246,910.564,529.63,911.143,523.063z"/>
		<path fill="#1573BA" d="M990.294,399.735c-12.604-0.102-22.907,10.033-23.008,22.64c-0.003,0.123-0.003,0.246,0,0.369
			c0,12.708,10.301,23.009,23.008,23.009c12.709,0,23.011-10.302,23.011-23.009c0.101-12.605-10.034-22.908-22.641-23.008
			C990.539,399.733,990.417,399.733,990.294,399.735 M990.294,441.149c-10.652-0.049-19.277-8.673-19.327-19.326
			c-0.257-10.417,7.978-19.07,18.396-19.329c0.309-0.007,0.622-0.007,0.932,0c10.654,0.052,19.279,8.675,19.327,19.329
			C1009.242,432.336,1000.809,440.772,990.294,441.149"/>
		<path fill="#1573BA" d="M213.507,523.984c-3.683-39.577-30.374-65.347-50.622-93.877c8.284-12.885,28.532-8.284,42.339-5.521
			c-18.686-13.295-40.642-21.249-63.505-23.009c-44.178,0-79.152,24.85-111.365,53.381c-20.247-7.364-6.442-27.612-6.442-42.336
			C8.499,434.686,0.74,461.193,1.823,488.09c1.954,24.104,10.206,47.272,23.929,67.186c10.124,11.047,19.329,22.09,28.531,32.211
			c-9.202,15.651-28.531,8.285-42.336,5.525c21.837,15.166,47.975,22.911,74.549,22.089c24.273-1.854,47.546-10.461,67.187-24.85
			c11.044-10.126,21.167-19.331,32.212-28.53c9.581,12.336,11.695,28.905,5.521,43.254
			C208.871,581.798,216.776,552.812,213.507,523.984z M182.214,524.905c-8.283,10.122-18.407,23.008-18.407,23.008
			c-6.692,7.785-14.435,14.602-23.009,20.249c-13.649,10.2-29.941,16.273-46.938,17.487h-3.681l-0.922-0.923l-19.326-19.325
			c-6.834-7.016-13.285-14.388-19.329-22.092c-10.203-13.647-16.272-29.938-17.488-46.936v-6.443l19.328-17.488
			c23.01-19.326,46.938-37.735,76.391-37.735h0.919l14.726,19.329c14.726,19.328,33.134,37.734,35.895,65.347
			C182.214,519.383,182.214,524.905,182.214,524.905L182.214,524.905z"/>
		<path fill="#1573BA" d="M982.012,435.628v-25.77h8.282c2.763,0,3.683,0,4.604,0.919c0.919,0.921,2.761,0.921,2.761,2.761
			c0.835,1.38,1.159,3.008,0.921,4.603c0,1.84-0.921,2.76-0.921,4.601c-1.048,1.139-2.298,2.074-3.682,2.761l0,0l0.921,0.922
			l5.521,10.125h-4.602l-5.522-10.125h-4.602v10.125L982.012,435.628z M985.692,422.743h4.602c0.965-0.159,1.895-0.469,2.763-0.92
			c0.92-0.921,0.92-1.84,0.92-3.681c0-1.843-0.92-2.763-1.841-4.603s-1.842-0.918-3.681-0.918h-3.684v10.122H985.692z"/>
	</g>
</g>
</svg>
