<?xml version="1.0" encoding="UTF-8"?>
<svg version="1.1" xmlns="http://www.w3.org/2000/svg" width="2000" height="411">
<path d="M0 0 C0.82290527 0.20367188 1.64581055 0.40734375 2.49365234 0.6171875 C22.49395227 5.70660213 41.46823657 14.26117518 58.92773438 25.20874023 C60.95151537 26.22588275 60.95151537 26.22588275 62.8684082 25.42016602 C63.50609131 25.03530029 64.14377441 24.65043457 64.80078125 24.25390625 C65.52217285 23.83222168 66.24356445 23.41053711 66.98681641 22.97607422 C67.75429199 22.50959473 68.52176758 22.04311523 69.3125 21.5625 C70.94983746 20.61505008 72.58918862 19.67107218 74.23046875 18.73046875 C75.44935791 18.02736572 75.44935791 18.02736572 76.69287109 17.31005859 C101.62057318 3.15534437 131.17759285 -4.44213887 159.75 -4.3125 C161.06258789 -4.30686035 162.37517578 -4.3012207 163.72753906 -4.29541016 C198.81300447 -3.85846416 228.23370388 10.20785601 253.46484375 34.359375 C285.47420997 67.9315855 292.84513616 113.89326497 292.08886719 158.39208984 C291.90886894 165.69982107 291.23525641 172.79833519 290 180 C289.84402344 180.91845703 289.68804687 181.83691406 289.52734375 182.78320312 C280.13305526 236.46982218 256.30649022 287.91381051 219 328 C217.93361713 329.24668915 216.87102009 330.49662796 215.8125 331.75 C207.07830433 341.74062289 197.49207265 350.88237095 187 359 C185.49373047 360.19689453 185.49373047 360.19689453 183.95703125 361.41796875 C157.29960621 382.48427721 126.56113773 398.6039557 93 405 C92.19095215 405.17587646 91.3819043 405.35175293 90.54833984 405.53295898 C81.57460732 407.30361388 72.6767295 407.33805181 63.56640625 407.31567383 C60.90061867 407.31253021 58.23596246 407.33599018 55.5703125 407.36132812 C12.27109447 407.52179202 -28.36963603 388.30539428 -62 362 C-62.87914063 361.31550781 -63.75828125 360.63101562 -64.6640625 359.92578125 C-76.94530358 350.12614788 -89.48314878 339.12304667 -99.3125 326.8125 C-102.48509212 322.86426566 -105.71514082 318.98025333 -109 315.125 C-137.48213389 280.90262066 -155.99401012 239.09856015 -166 196 C-166.23315918 195.00178223 -166.46631836 194.00356445 -166.70654297 192.97509766 C-170.12599708 177.52296154 -170.4095141 162.06977436 -170.5 146.3125 C-170.51062469 145.33019409 -170.52124939 144.34788818 -170.53219604 143.33581543 C-170.70146687 122.89268144 -167.89260723 103.27809222 -161 84 C-160.63261719 82.92105469 -160.26523438 81.84210938 -159.88671875 80.73046875 C-153.15100368 61.95842435 -142.62679076 46.463092 -129 32 C-128.38898438 31.32453125 -127.77796875 30.6490625 -127.1484375 29.953125 C-95.42764858 -3.79239512 -43.13934917 -10.96461983 0 0 Z M-100.17578125 63.8671875 C-122.53151279 90.00472373 -129.76417148 124.83385604 -127.46875 158.49609375 C-124.95766313 189.72498335 -116.37827785 223.90873764 -99.45703125 250.65234375 C-97.89281732 253.17269918 -96.50932224 255.75187726 -95.125 258.375 C-87.16672831 273.07196408 -76.66217877 286.19530304 -66 299 C-64.82446682 295.47340047 -65.23155627 293.69839782 -65.875 290.0625 C-73.40495608 247.26901718 -65.31091331 203.34021471 -49.88525391 163.29931641 C-49.31651041 161.82208909 -48.75321156 160.34274762 -48.19677734 158.86083984 C-33.80941861 120.65992182 -8.19301417 86.32179191 21.015625 58.14453125 C23.22638935 56.24230126 23.22638935 56.24230126 23 54 C-17.07014519 36.27412896 -66.86004276 28.2465866 -100.17578125 63.8671875 Z M117 47 C116.32404785 47.24733887 115.6480957 47.49467773 114.95166016 47.74951172 C85.33361227 58.78097075 56.89210824 78.75107211 36.58203125 103.11328125 C35.51055205 104.39111941 34.40184268 105.63848253 33.26171875 106.85546875 C22.60978027 118.25723313 13.89012566 131.58678637 6 145 C5.41992188 145.93457031 4.83984375 146.86914062 4.2421875 147.83203125 C-20.36525043 188.16395306 -34.36957637 243.58672537 -23.47900391 290.23144531 C-19.37742092 306.86392969 -13.26493087 325.42258681 -1 338 C-0.34 338 0.32 338 1 338 C1.26425781 338.59425781 1.52851563 339.18851562 1.80078125 339.80078125 C7.37851439 350.02965342 23.52942245 357.8034715 34.22265625 361.2265625 C35.59744141 361.60941406 35.59744141 361.60941406 37 362 C38.02996094 362.29648437 39.05992187 362.59296875 40.12109375 362.8984375 C62.29273583 368.48620394 85.42771485 364.65396238 105 353 C108.95921187 350.26683538 112.49509759 347.28939061 116 344 C116.77601563 343.31421875 117.55203125 342.6284375 118.3515625 341.921875 C138.01698046 323.67561091 146.74767264 294.63573622 148.18896484 268.58447266 C149.19875624 241.5023778 144.93999688 216.80833724 137 191 C134.10271105 191.60710413 131.91955439 192.4861312 129.41015625 194.046875 C128.71921875 194.47291016 128.02828125 194.89894531 127.31640625 195.33789062 C126.57261719 195.80388672 125.82882812 196.26988281 125.0625 196.75 C124.27617187 197.23662109 123.48984375 197.72324219 122.6796875 198.22460938 C120.99091919 199.27047923 119.30362878 200.31873849 117.61767578 201.36914062 C115.00710725 202.99557206 112.39288345 204.61595185 109.77734375 206.234375 C108.90779053 206.77255859 108.0382373 207.31074219 107.14233398 207.86523438 C105.38030715 208.95536943 103.61809997 210.04521306 101.85571289 211.13476562 C97.51041809 213.82216209 93.17111716 216.51819118 88.84375 219.234375 C87.22927549 220.2397581 85.61469699 221.24497425 84 222.25 C82.89688477 222.94899414 82.89688477 222.94899414 81.77148438 223.66210938 C74.81073405 227.9742518 74.81073405 227.9742518 71 228 C66.88697685 225.99111203 64.87884115 223.82572889 62.484375 219.96484375 C61.87335938 218.99095703 61.26234375 218.01707031 60.6328125 217.01367188 C60.01148438 215.99853516 59.39015625 214.98339844 58.75 213.9375 C58.11320312 212.91849609 57.47640625 211.89949219 56.8203125 210.84960938 C50.7506703 201.10589652 50.7506703 201.10589652 51 194 C51.33 193.01 51.66 192.02 52 191 C53.6407389 190.27185299 55.31337738 189.61443175 57 189 C58.71238522 188.01970433 60.40156915 186.99818398 62.0703125 185.9453125 C63.03888184 185.33695557 64.00745117 184.72859863 65.00537109 184.10180664 C66.03484863 183.44946045 67.06432617 182.79711426 68.125 182.125 C69.19959473 181.44880615 70.27418945 180.7726123 71.38134766 180.07592773 C76.2233872 177.02693014 81.05687615 173.96446084 85.890625 170.90234375 C87.38537257 169.95565953 88.88016348 169.00904375 90.375 168.0625 C91.12023926 167.59021973 91.86547852 167.11793945 92.63330078 166.63134766 C100.48937609 161.66588617 108.41477791 156.81395647 116.33569336 151.95288086 C132.29177589 142.1717425 132.29177589 142.1717425 148 132 C154.15781595 131.32823826 154.15781595 131.32823826 156.98828125 133.5859375 C159.42112708 136.5053525 161.09971483 139.60334136 162.75 143 C163.09071533 143.69279053 163.43143066 144.38558105 163.7824707 145.09936523 C168.00875634 153.86481532 171.58333371 162.8933813 175 172 C175.24347168 172.64759277 175.48694336 173.29518555 175.73779297 173.96240234 C189.32306573 210.74545167 194.6677139 252.45038434 187.55859375 291.2109375 C187.06292481 294.57316737 187.06502764 295.9181331 188 299 C227.89360665 251.41530617 253.58679178 191.72756161 248.7265625 128.71484375 C245.45407818 100.34302218 234.18457574 74.5658766 212.3125 55.75 C184.72190071 34.82821855 148.29743372 35.42699396 117 47 Z " fill="#00DBDC" transform="translate(170,4)"/>
<path d="M0 0 C1.53053862 1.44814421 3.05232085 2.9056365 4.5625 4.375 C5.49642578 5.23351562 5.49642578 5.23351562 6.44921875 6.109375 C13.92062344 13.16103785 19.35412728 21.52582414 24 30.625 C24.34216553 31.2862085 24.68433105 31.94741699 25.03686523 32.62866211 C27.10305775 36.82783422 28.52261936 40.61211213 28.5625 45.375 C25.93572459 49.251666 22.40770677 50.50167748 18.125 52.125 C17.48828369 52.36814941 16.85156738 52.61129883 16.19555664 52.86181641 C14.77802941 53.40238603 13.35890563 53.93878173 11.93847656 54.47167969 C9.32017629 55.46712883 6.71891695 56.50110459 4.1171875 57.5390625 C2.2450052 58.27658395 0.37261078 59.01356718 -1.5 59.75 C-2.83792603 60.28705566 -2.83792603 60.28705566 -4.20288086 60.83496094 C-12.68185229 64.12169469 -12.68185229 64.12169469 -17.4375 63.375 C-19.08984375 62.23046875 -19.08984375 62.23046875 -20.375 60.5625 C-21.12330078 59.6034375 -21.12330078 59.6034375 -21.88671875 58.625 C-23.5869765 56.1581273 -25.13382837 53.62405697 -26.6875 51.0625 C-36.64981113 35.21830147 -51.33198458 27.28043787 -69.06640625 22.6953125 C-88.30413946 18.50945699 -107.7484134 22.15470881 -124.4375 32.375 C-141.32543143 43.82444504 -150.24614727 60.87983626 -154.4375 80.375 C-156.20778158 91.13831203 -155.76176739 101.04341518 -153.6875 111.6875 C-153.53063721 112.51080811 -153.37377441 113.33411621 -153.2121582 114.18237305 C-152.0001819 119.97021385 -150.0464121 125.07751922 -147.4375 130.375 C-146.93089844 131.40367187 -146.42429687 132.43234375 -145.90234375 133.4921875 C-136.42180293 150.61050418 -122.28610147 159.66193361 -103.90234375 165.12890625 C-86.88005009 168.98657343 -67.84803787 167.22965988 -52.1875 159.75 C-51.56190186 159.45609375 -50.93630371 159.1621875 -50.29174805 158.859375 C-44.17374206 155.71529985 -39.39938024 151.07752648 -34.4375 146.375 C-35.22922607 146.35518066 -36.02095215 146.33536133 -36.83666992 146.31494141 C-40.4331076 146.2195284 -44.02897751 146.10991409 -47.625 146 C-48.87087891 145.9690625 -50.11675781 145.938125 -51.40039062 145.90625 C-53.2034668 145.84824219 -53.2034668 145.84824219 -55.04296875 145.7890625 C-56.14793701 145.7576416 -57.25290527 145.7262207 -58.39135742 145.69384766 C-61.48338342 145.37019726 -63.68667897 144.81091953 -66.4375 143.375 C-68.82881157 139.78803265 -68.7601333 137.15123424 -68.7734375 133.00390625 C-68.7800943 132.2851683 -68.7867511 131.56643036 -68.79360962 130.82591248 C-68.80372573 129.30706336 -68.80842696 127.78816988 -68.80810547 126.26928711 C-68.8124784 123.94896034 -68.84880317 121.63053706 -68.88671875 119.31054688 C-68.89258732 117.83333983 -68.89655644 116.35612376 -68.8984375 114.87890625 C-68.91999405 113.84123863 -68.91999405 113.84123863 -68.94198608 112.78260803 C-68.90982441 109.381551 -68.67177112 107.67112854 -66.53369141 104.96850586 C-62.4896809 101.89428543 -58.95153197 102.22051728 -54.04394531 102.21386719 C-53.17546967 102.20890228 -52.30699402 102.20393738 -51.41220093 102.19882202 C-48.53000097 102.18417996 -45.64785609 102.17739426 -42.765625 102.171875 C-40.76503497 102.16612431 -38.76444497 102.16036657 -36.76385498 102.15460205 C-32.56392154 102.14408561 -28.36400727 102.13824746 -24.1640625 102.13476562 C-18.78602805 102.12928591 -13.40824743 102.10527171 -8.03029251 102.07679367 C-3.89527654 102.0581541 0.23967854 102.05296094 4.37473297 102.05142975 C6.35704177 102.04840462 8.33934954 102.04038082 10.32161713 102.02724457 C13.09839559 102.01016002 15.87455726 102.01207047 18.65136719 102.01855469 C19.46821991 102.0093399 20.28507263 102.00012512 21.12667847 101.9906311 C25.99556725 102.02618639 29.34292729 102.6758755 33.5625 105.375 C34.69691319 107.64382638 34.69736828 108.90313357 34.71640015 111.42294312 C34.72500061 112.26974136 34.73360107 113.11653961 34.74246216 113.98899841 C34.74885208 115.3854232 34.74885208 115.3854232 34.75537109 116.81005859 C34.76763733 118.27852486 34.76763733 118.27852486 34.78015137 119.7766571 C34.80502297 123.02557761 34.82152424 126.27445445 34.8359375 129.5234375 C34.84126118 130.63089954 34.84658485 131.73836159 34.85206985 132.87938309 C34.87880669 138.73891763 34.89818156 144.5984308 34.91259766 150.45800781 C34.92926401 156.52018901 34.97405733 162.58182851 35.0249691 168.64380455 C35.0585656 173.29687144 35.07016667 177.94980844 35.07582474 182.60298538 C35.0825562 184.83817316 35.09782703 187.07335183 35.12171555 189.30842209 C35.15321186 192.43311983 35.15342717 195.55633862 35.14599609 198.68115234 C35.16240143 199.60805374 35.17880676 200.53495514 35.19570923 201.48994446 C35.13475374 207.73636907 35.13475374 207.73636907 32.25735474 210.94752502 C28.70205054 212.83078341 25.52560024 212.9683386 21.59375 212.94140625 C20.83582153 212.94760483 20.07789307 212.95380341 19.29699707 212.96018982 C17.70012695 212.96726989 16.10318273 212.96414558 14.50634766 212.95141602 C12.06925192 212.93753845 9.63599115 212.97165264 7.19921875 213.00976562 C5.64322823 213.01071684 4.08723293 213.00885786 2.53125 213.00390625 C1.80715942 213.01716446 1.08306885 213.03042267 0.33703613 213.04408264 C-3.45766759 212.97457265 -5.31194011 212.46769369 -8.39135742 210.19433594 C-10.69251614 207.02361874 -11.08244847 205.5065454 -11.14453125 201.63671875 C-11.17353516 200.57001953 -11.20253906 199.50332031 -11.23242188 198.40429688 C-11.23822266 197.30150391 -11.24402344 196.19871094 -11.25 195.0625 C-11.27513672 193.94037109 -11.30027344 192.81824219 -11.32617188 191.66210938 C-11.3849532 188.89938714 -11.4212998 186.13824608 -11.4375 183.375 C-11.80464111 183.82738037 -12.17178223 184.27976074 -12.55004883 184.74584961 C-27.9729325 203.30984011 -53.02920337 212.97951082 -76.4375 216.375 C-93.82487553 217.27780364 -111.69959648 217.65362835 -128.4375 212.375 C-129.46085449 212.06151611 -129.46085449 212.06151611 -130.50488281 211.74169922 C-145.3617589 207.05282698 -158.62197235 199.49605276 -170.4375 189.375 C-171.18515625 188.84648437 -171.9328125 188.31796875 -172.703125 187.7734375 C-173.27546875 187.31195313 -173.8478125 186.85046875 -174.4375 186.375 C-174.4375 185.715 -174.4375 185.055 -174.4375 184.375 C-175.7575 183.715 -177.0775 183.055 -178.4375 182.375 C-178.4375 181.715 -178.4375 181.055 -178.4375 180.375 C-179.0975 180.375 -179.7575 180.375 -180.4375 180.375 C-182.07943433 178.53774263 -183.57757716 176.70935067 -185.0625 174.75 C-185.5069043 174.16532959 -185.95130859 173.58065918 -186.40917969 172.97827148 C-199.76495215 155.02637331 -207.46691643 134.49965889 -210.4375 112.375 C-210.56125 111.56675781 -210.685 110.75851563 -210.8125 109.92578125 C-214.67287362 79.18755633 -205.67310092 45.11692837 -186.9375 20.51953125 C-168.96001615 -2.34644533 -145.267348 -17.92018696 -116.9375 -24.8125 C-116.26178955 -24.97959473 -115.5860791 -25.14668945 -114.88989258 -25.31884766 C-76.5860755 -34.19440102 -29.90211071 -26.519519 0 0 Z " fill="#00DBDC" transform="translate(758.4375,112.625)"/>
<path d="M0 0 C0.80237091 -0.00708481 1.60474182 -0.01416962 2.431427 -0.02146912 C3.30349289 -0.0189917 4.17555878 -0.01651428 5.0740509 -0.01396179 C6.00008118 -0.01907272 6.92611145 -0.02418365 7.88020325 -0.02944946 C10.9524529 -0.04337998 14.02447839 -0.04238282 17.09675598 -0.04008484 C19.2507536 -0.04397644 21.40475046 -0.04831207 23.55874634 -0.05307007 C28.09072847 -0.06054445 32.62263278 -0.06023695 37.15461731 -0.05497742 C42.88945969 -0.04925121 48.62397184 -0.06593938 54.35875988 -0.08932209 C58.8213886 -0.10426897 63.28394223 -0.10490198 67.74659157 -0.10181236 C69.8555344 -0.10231749 71.96448239 -0.10739843 74.0734005 -0.11762428 C113.92578699 -0.28680217 149.75368397 6.76606203 178.92878723 35.26069641 C180.03867004 36.27776672 180.03867004 36.27776672 181.17097473 37.31538391 C201.64021632 56.51027583 209.94433996 86.13061897 211.21394348 113.30757141 C212.13758887 146.84909394 202.02890379 178.17566374 178.92805481 202.77900696 C163.15230497 218.95988422 142.85558817 229.21012402 120.92878723 234.26069641 C119.92104752 234.50826187 118.9133078 234.75582733 117.87503052 235.01089478 C105.02945421 237.8186607 92.32588249 237.69740025 79.22566223 237.65913391 C76.76946425 237.66115854 74.31326686 237.66407321 71.85707092 237.66783142 C66.74371032 237.67222643 61.63050817 237.66590855 56.51716614 237.65180969 C49.96002677 237.63461037 43.40325294 237.64464455 36.84612656 237.66252708 C31.78988366 237.67334873 26.73372808 237.66992788 21.6774826 237.66214371 C19.25812486 237.66014285 16.83875919 237.66259696 14.41941071 237.66958237 C11.05220334 237.67718185 7.68559803 237.6656181 4.31843567 237.64888 C3.32002151 237.6549527 2.32160736 237.66102539 1.29293823 237.6672821 C-0.08158257 237.6545929 -0.08158257 237.6545929 -1.48387146 237.64164734 C-2.27795536 237.64051626 -3.07203926 237.63938519 -3.89018631 237.63821983 C-6.66283781 237.15828944 -8.03021819 236.17284886 -10.07121277 234.26069641 C-11.38709029 230.31306385 -11.21580384 226.54504593 -11.21165466 222.42967224 C-11.21462579 221.51592107 -11.21759691 220.60216989 -11.22065806 219.66072929 C-11.22935859 216.58613233 -11.23085445 213.51157425 -11.23234558 210.43696594 C-11.23697275 208.23776669 -11.24199727 206.03856824 -11.24739075 203.83937073 C-11.26052537 197.85593271 -11.26696162 191.87250592 -11.27140141 185.88905573 C-11.27433004 182.15336486 -11.27843442 178.41767708 -11.28290558 174.68198776 C-11.29658247 163.0010707 -11.3062645 151.32016008 -11.31010747 139.63923562 C-11.31055094 138.29479416 -11.3109975 136.95035271 -11.31144714 135.60591125 C-11.31166857 134.9390216 -11.31189 134.27213195 -11.31211814 133.58503352 C-11.31606704 122.7765387 -11.33352425 111.96811126 -11.35680667 101.15964247 C-11.38051503 90.06393104 -11.39272422 78.96824765 -11.39414859 67.87250984 C-11.39519832 61.64214626 -11.40114202 55.41187773 -11.4189682 49.18153763 C-11.43540511 43.3227337 -11.4376257 37.46409673 -11.42882919 31.60527802 C-11.4280565 29.45299458 -11.43243191 27.30070233 -11.44228745 25.14844131 C-11.45493849 22.21398945 -11.44916737 19.28013504 -11.43870544 16.34568787 C-11.44676185 15.49072601 -11.45481825 14.63576416 -11.46311879 13.75489438 C-11.42446977 9.1310617 -11.17006509 5.95195575 -8.07121277 2.26069641 C-5.36078842 0.4432209 -3.22908066 0.00955305 0 0 Z M41.92878723 49.26069641 C41.92878723 95.46069641 41.92878723 141.66069641 41.92878723 189.26069641 C92.7674445 192.32740927 92.7674445 192.32740927 135.92878723 171.26069641 C146.071816 160.73396754 152.15550332 148.57510801 154.92878723 134.26069641 C155.11183411 133.52850891 155.29488098 132.79632141 155.48347473 132.04194641 C158.60510836 112.54542763 155.02394078 91.3122987 143.49617004 75.11274719 C132.51124071 60.54168723 119.35866324 54.01429896 101.92878723 49.26069641 C82.12878723 49.26069641 62.32878723 49.26069641 41.92878723 49.26069641 Z " fill="#00DBDC" transform="translate(1005.0712127685547,87.73930358886719)"/>
<path d="M0 0 C0.8037355 -0.00428513 1.60747101 -0.00857025 2.43556213 -0.01298523 C4.13256897 -0.01871867 5.82960037 -0.01923605 7.52661133 -0.01489258 C10.11647669 -0.01173391 12.70519776 -0.03519844 15.29492188 -0.06054688 C16.94661315 -0.06282018 18.59830748 -0.06352322 20.25 -0.0625 C21.02097519 -0.07170975 21.79195038 -0.08091949 22.58628845 -0.09040833 C27.13671347 -0.05144689 30.09657467 0.44742814 33.69140625 3.30078125 C36.32379355 7.2493622 35.97518667 10.63155595 35.95883179 15.21446228 C35.9633629 16.13708613 35.96789401 17.05970997 35.97256243 18.01029211 C35.98526545 21.11490325 35.98358227 24.21934029 35.98193359 27.32397461 C35.98791511 29.54450203 35.99471978 31.76502735 36.00228882 33.98554993 C36.01999319 40.02678157 36.02464603 46.06795661 36.02592039 52.10921168 C36.02781657 57.14675167 36.03517076 62.18427837 36.04226458 67.22181326 C36.05763102 78.4237738 36.06360098 89.62570752 36.06225388 100.82767539 C36.06217397 101.49998929 36.06209405 102.17230319 36.06201172 102.86499023 C36.06192996 103.53812343 36.0618482 104.21125662 36.06176396 104.90478779 C36.0609508 115.81745074 36.08009529 126.72997575 36.10828845 137.6425988 C36.13699821 148.84340297 36.15046332 160.04414186 36.1491009 171.24499041 C36.14859001 177.53514911 36.15434311 183.82515172 36.175457 190.11527824 C36.1947652 196.02911886 36.19501474 201.94265327 36.18042374 207.85650444 C36.17832538 210.03017115 36.18309717 212.20385666 36.19514465 214.377491 C36.2104978 217.33873062 36.20135482 220.29890127 36.18588257 223.26011658 C36.19616969 224.12577317 36.20645682 224.99142976 36.21705568 225.88331836 C36.1496321 231.69910941 36.1496321 231.69910941 33.78550148 234.80332279 C28.00979808 238.9334482 20.03038766 237.60559399 13.15258789 237.65087891 C11.30870945 237.6674334 9.46489506 237.69471694 7.62133789 237.73291016 C4.9607622 237.7877379 2.30168988 237.80956104 -0.359375 237.82421875 C-1.59087029 237.85822281 -1.59087029 237.85822281 -2.84724426 237.89291382 C-7.1762463 237.876973 -8.80566498 237.69762667 -12.32373047 234.92163086 C-14.39543071 232.18612015 -14.97003941 230.86182824 -15.12109375 227.48828125 C-15.19263672 226.30298828 -15.19263672 226.30298828 -15.265625 225.09375 C-15.27980469 224.50207031 -15.29398438 223.91039062 -15.30859375 223.30078125 C-15.6746875 223.72488281 -16.04078125 224.14898437 -16.41796875 224.5859375 C-26.19864753 235.18167284 -39.77690156 241.15803253 -54.140625 241.8671875 C-56.46728625 241.89464704 -58.79445725 241.89276293 -61.12109375 241.86328125 C-62.95921631 241.84793335 -62.95921631 241.84793335 -64.83447266 241.83227539 C-74.5445797 241.60542775 -82.4239943 240.2572827 -91.30859375 236.30078125 C-91.91300293 236.04377441 -92.51741211 235.78676758 -93.14013672 235.52197266 C-101.99359502 231.71963056 -109.20849079 226.76775401 -116.30859375 220.30078125 C-117.36820313 219.38039063 -117.36820313 219.38039063 -118.44921875 218.44140625 C-133.37250372 204.69318309 -142.42176937 182.85047708 -143.43261719 162.84643555 C-143.79263133 150.95819071 -143.46324498 139.83157541 -140.30859375 128.30078125 C-140.03015625 127.26953125 -139.75171875 126.23828125 -139.46484375 125.17578125 C-133.20749494 104.46179897 -119.1379218 87.22048198 -100.35546875 76.63671875 C-94.17781048 73.42116842 -88.07632844 70.94023249 -81.30859375 69.30078125 C-80.665271 69.13304199 -80.02194824 68.96530273 -79.35913086 68.79248047 C-60.80467903 64.23081254 -41.78908526 67.21926512 -25.17578125 76.32421875 C-22.83598875 77.93720922 -21.09561002 79.41930075 -19.12939453 81.42431641 C-18.59839142 81.96335602 -18.06738831 82.50239563 -17.52029419 83.05776978 C-16.92050247 83.67306046 -16.92050247 83.67306046 -16.30859375 84.30078125 C-16.29979439 82.87044304 -16.29979439 82.87044304 -16.29081726 81.41120911 C-16.23358292 72.42103742 -16.16081761 63.43110745 -16.07287884 54.44118214 C-16.02816768 49.81944843 -15.9889132 45.19780303 -15.9621582 40.57592773 C-15.93613265 36.11482917 -15.89573558 31.65407027 -15.84540749 27.19318199 C-15.8287337 25.49200353 -15.8172226 23.79076631 -15.81097984 22.08951759 C-15.80134418 19.70490611 -15.77329241 17.32116459 -15.7409668 14.93676758 C-15.74311943 13.88372185 -15.74311943 13.88372185 -15.74531555 12.80940247 C-15.6624232 8.48062391 -14.91076484 5.77136646 -12.30859375 2.30078125 C-8.71898038 -0.48296838 -4.34584455 -0.00512398 0 0 Z M-82.58203125 129.9296875 C-88.16440563 137.59597991 -89.48789425 145.29044605 -89.49609375 154.61328125 C-89.50833984 155.33451172 -89.52058594 156.05574219 -89.53320312 156.79882812 C-89.56303162 167.88508659 -85.86127604 177.26282697 -78.35546875 185.41015625 C-69.5609101 193.53337455 -59.97598809 195.79891983 -48.29296875 195.546875 C-37.99212552 194.69745992 -29.72536388 190.07532022 -22.55859375 182.73828125 C-14.20563124 172.36035814 -13.02812408 160.46677435 -14.03076172 147.62597656 C-15.39801051 136.18337775 -21.56229659 127.84476803 -30.28125 120.6796875 C-47.98161831 108.43117801 -69.47175037 114.44284176 -82.58203125 129.9296875 Z " fill="#00DBDC" transform="translate(1557.30859375,87.69921875)"/>
<path d="M0 0 C1.20560326 -0.00287018 1.20560326 -0.00287018 2.43556213 -0.00579834 C4.13258172 -0.00715708 5.82961181 -0.00348234 7.52661133 0.00488281 C10.11628738 0.01557291 12.70526754 0.00498442 15.29492188 -0.0078125 C16.94661611 -0.00649058 18.59830991 -0.0039275 20.25 0 C21.02097519 -0.00404846 21.79195038 -0.00809692 22.58628845 -0.01226807 C26.677158 0.02318332 30.16035298 0.08394292 33.69140625 2.265625 C36.20969785 6.8133203 35.97979024 11.3229235 35.96556091 16.37512207 C35.97079759 17.29466565 35.97603427 18.21420922 35.98142964 19.16161776 C35.9964355 22.24385684 35.99713491 25.32593001 35.99780273 28.40820312 C36.00542364 30.61755148 36.01385102 32.82689718 36.02302551 35.03623962 C36.04497991 41.03815907 36.05377032 47.04002758 36.05885196 53.04198265 C36.0624934 56.79008465 36.06873226 60.53817325 36.07585335 64.28627014 C36.09530543 74.6662742 36.11182154 85.04626898 36.11472988 95.42629242 C36.11491745 96.09007154 36.11510502 96.75385065 36.11529827 97.43774429 C36.11566452 98.78332774 36.11602822 100.12891119 36.11638939 101.47449464 C36.1165722 102.14242801 36.11675501 102.81036138 36.11694336 103.49853516 C36.11721418 104.50165905 36.11721418 104.50165905 36.11749048 105.52504808 C36.12103462 116.36903953 36.14807519 127.21283271 36.18544125 138.05675536 C36.22350813 149.19321005 36.24244595 160.32959215 36.24318939 171.46611929 C36.24398368 177.71775739 36.25279283 183.96913947 36.28118706 190.22071838 C36.30728356 196.09770136 36.30961983 201.97421446 36.29353142 207.85122871 C36.29171042 210.00996992 36.29846596 212.16873765 36.31435013 214.32742119 C36.33469151 217.27088526 36.32432908 220.21268665 36.30613708 223.15612793 C36.32593704 224.44236077 36.32593704 224.44236077 36.34613699 225.75457811 C36.28436752 230.11946492 36.09420006 231.75885118 33.28337193 235.29528618 C30.69906261 237.25980485 29.69706108 237.89419719 26.53125 237.91259766 C25.74693604 237.92835846 24.96262207 237.94411926 24.15454102 237.96035767 C23.32108154 237.95023651 22.48762207 237.94011536 21.62890625 237.9296875 C20.32554321 237.93686295 20.32554321 237.93686295 18.99584961 237.94418335 C17.16355574 237.94757725 15.3312009 237.93841044 13.49902344 237.91748047 C10.69979406 237.89070523 7.90457392 237.91724303 5.10546875 237.94921875 C3.32160576 237.94591456 1.53774526 237.93950813 -0.24609375 237.9296875 C-1.07955322 237.93980865 -1.9130127 237.94992981 -2.77172852 237.96035767 C-7.11247437 237.8731303 -8.81028643 237.65935178 -12.33081055 234.87768555 C-14.3979347 232.1476323 -14.97031524 230.82051164 -15.12109375 227.453125 C-15.19263672 226.26783203 -15.19263672 226.26783203 -15.265625 225.05859375 C-15.27980469 224.46691406 -15.29398438 223.87523437 -15.30859375 223.265625 C-15.69789062 223.70132813 -16.0871875 224.13703125 -16.48828125 224.5859375 C-25.02288935 233.67116548 -37.44115466 240.57869542 -50.07910156 241.45849609 C-78.05721051 242.16674831 -78.05721051 242.16674831 -91.30859375 236.265625 C-91.91300293 236.00861816 -92.51741211 235.75161133 -93.14013672 235.48681641 C-101.98658318 231.68748572 -109.21602204 226.73340246 -116.30859375 220.265625 C-117.29279297 219.38583984 -117.29279297 219.38583984 -118.296875 218.48828125 C-134.98215491 202.76490217 -142.98003724 179.41906349 -143.71777344 156.94921875 C-144.00635008 131.51467052 -136.12737314 109.41540367 -118.7421875 90.7109375 C-103.04224593 74.93539429 -83.22851663 66.87109342 -61.05859375 66.703125 C-46.11675859 66.92059258 -29.97027587 70.32349085 -19.12719727 81.38916016 C-18.59651138 81.92819977 -18.0658255 82.46723938 -17.51905823 83.02261353 C-17.11960495 83.43280731 -16.72015167 83.8430011 -16.30859375 84.265625 C-16.29979439 82.83528679 -16.29979439 82.83528679 -16.29081726 81.37605286 C-16.23358292 72.38588117 -16.16081761 63.3959512 -16.07287884 54.40602589 C-16.02816768 49.78429218 -15.9889132 45.16264678 -15.9621582 40.54077148 C-15.93613265 36.07967292 -15.89573558 31.61891402 -15.84540749 27.15802574 C-15.8287337 25.45684728 -15.8172226 23.75561006 -15.81097984 22.05436134 C-15.80134418 19.66974986 -15.77329241 17.28600834 -15.7409668 14.90161133 C-15.74311943 13.8485656 -15.74311943 13.8485656 -15.74531555 12.77424622 C-15.66242229 8.44542044 -14.91066488 5.73630345 -12.30859375 2.265625 C-8.71639572 -0.52486046 -4.34825368 -0.02277329 0 0 Z M-80.12109375 127.140625 C-83.20769335 130.884556 -85.50358937 134.76594583 -87.30859375 139.265625 C-87.66695312 140.14476562 -88.0253125 141.02390625 -88.39453125 141.9296875 C-91.4231349 152.98279654 -90.46507007 166.85380544 -84.8671875 176.8359375 C-79.00526921 185.94843229 -71.1651239 192.25581496 -60.62109375 194.953125 C-47.45273692 196.19542281 -36.77395674 194.8428035 -26.30859375 186.265625 C-17.4445263 177.67794273 -13.53654677 167.10458583 -12.87109375 154.828125 C-13.40550724 142.21131963 -18.5979121 131.56612588 -27.55859375 122.953125 C-34.70772704 116.89085319 -43.55986305 113.87767725 -52.94140625 114.0546875 C-64.03995446 115.04366704 -72.56268693 118.98971595 -80.12109375 127.140625 Z " fill="#00DBDC" transform="translate(1747.30859375,87.734375)"/>
<path d="M0 0 C1.29693535 -0.01925285 1.29693535 -0.01925285 2.62007141 -0.03889465 C3.55650986 -0.04628159 4.4929483 -0.05366852 5.45776367 -0.0612793 C6.41970139 -0.06935104 7.3816391 -0.07742279 8.37272644 -0.08573914 C10.41122635 -0.09958415 12.44974948 -0.11030443 14.48828125 -0.11816406 C17.60290579 -0.13537193 20.7164676 -0.17925381 23.83081055 -0.22338867 C25.81062044 -0.23351596 27.79043937 -0.24203195 29.77026367 -0.2487793 C30.70062943 -0.26628738 31.63099518 -0.28379547 32.58955383 -0.30183411 C36.61186462 -0.28837133 39.18615773 -0.15532444 42.78320312 1.75097656 C45.29647791 4.75451373 46.3421685 7.70506541 47.33666992 11.41918945 C47.54093597 12.12477997 47.74520203 12.83037048 47.95565796 13.55734253 C48.38068591 15.03281746 48.79793827 16.510553 49.2076416 17.99035645 C49.77775017 20.04888392 50.36753683 22.10035911 50.96655273 24.15063477 C51.93821528 27.48597779 52.89022837 30.82652798 53.83529663 34.16949463 C54.90546073 37.95452914 55.98267059 41.7375598 57.05932617 45.52075195 C57.28306412 46.3074527 57.50680206 47.09415344 57.73731995 47.9046936 C60.06209416 56.06966078 62.42819594 64.22253005 64.79592896 72.37512207 C69.22285766 87.61855478 73.58119758 102.87809667 77.81323242 118.17700195 C82.40913727 104.34509602 86.05269296 90.258905 89.76049805 76.17016602 C92.42693221 66.04498943 95.14091572 55.93234943 97.84301758 45.81665039 C98.80966101 42.1903997 99.7707594 38.562712 100.73120117 34.93481445 C101.34175139 32.64050985 101.95242296 30.34623755 102.56323242 28.05200195 C102.83272705 27.02816406 103.10222168 26.00432617 103.37988281 24.94946289 C104.16326946 22.01664858 104.97825535 19.09552903 105.81323242 16.17700195 C106.11551758 15.09966797 106.41780273 14.02233398 106.72924805 12.91235352 C107.05086914 11.84726563 107.37249023 10.78217773 107.70385742 9.68481445 C107.98777344 8.72462402 108.27168945 7.76443359 108.56420898 6.77514648 C110.20271105 3.36683159 111.5090704 2.05588717 114.81323242 0.17700195 C118.01045862 -0.37962139 121.14488511 -0.36027325 124.38354492 -0.3190918 C125.30158905 -0.32054703 126.21963318 -0.32200226 127.16549683 -0.32350159 C129.10035384 -0.32184561 131.03522444 -0.31031815 132.9699707 -0.28955078 C135.93521811 -0.26052755 138.89868451 -0.26896151 141.86401367 -0.28198242 C143.74553279 -0.27574679 145.62704627 -0.26735722 147.50854492 -0.2565918 C148.39607452 -0.25952744 149.28360413 -0.26246307 150.19802856 -0.26548767 C151.0225351 -0.2528035 151.84704163 -0.24011932 152.6965332 -0.22705078 C153.42091583 -0.2216478 154.14529846 -0.21624481 154.89163208 -0.2106781 C157.36477599 0.28827506 158.23837088 1.24674804 159.81323242 3.17700195 C163.7748737 11.10028451 157.33208156 24.20833622 154.87573242 32.17700195 C154.37680617 33.82072896 153.87893983 35.46477802 153.38208008 37.10913086 C152.3616366 40.48466147 151.33746137 43.85902446 150.31079102 47.23266602 C148.26798504 53.96007758 146.28256222 60.70415873 144.30438232 67.45080566 C143.68607211 69.55936904 143.06642925 71.66753712 142.4465332 73.77563477 C139.31648806 84.42676218 136.22866488 95.08994147 133.14355469 105.75415039 C130.15527555 116.05746717 127.07733323 126.33212943 123.97924805 136.6027832 C121.84404266 143.69511743 119.76137292 150.79843035 117.75073242 157.92700195 C115.48095023 165.92524424 113.1470771 173.90323141 110.75073242 181.86450195 C110.43418701 182.93990234 110.1176416 184.01530273 109.79150391 185.12329102 C104.15826281 203.65296622 93.98019921 218.45584293 77.21557617 228.3840332 C72.23107808 231.01076641 67.25925611 232.7730067 61.81323242 234.17700195 C60.52739258 234.51344727 60.52739258 234.51344727 59.21557617 234.85668945 C40.88595701 238.89307618 18.2889512 236.32221977 1.81323242 227.17700195 C-8.53515467 220.48022776 -8.53515467 220.48022776 -10.18676758 217.17700195 C-11.15433419 210.43022902 -10.17913702 206.02289259 -6.1652832 200.5480957 C-5.61549805 199.84813477 -5.06571289 199.14817383 -4.49926758 198.42700195 C-3.96881836 197.71157227 -3.43836914 196.99614258 -2.8918457 196.2590332 C-1.35542577 194.20418937 0.21640301 192.18514363 1.81323242 190.17700195 C2.28841309 189.57823242 2.76359375 188.97946289 3.25317383 188.36254883 C7.23679488 183.45287852 7.23679488 183.45287852 11.31323242 182.73950195 C15.81142353 183.30177584 18.52458726 185.25811726 22.31713867 187.6418457 C30.47070202 192.65647856 39.06062645 193.75360159 48.47338867 191.5559082 C53.31474133 189.73737006 56.20645648 187.34640917 58.68432617 182.8137207 C61.13918978 177.08004272 62.98984838 171.13597618 64.81323242 165.17700195 C64.14267822 165.19794922 63.47212402 165.21889648 62.78125 165.24047852 C59.72956462 165.32386222 56.67811925 165.37573211 53.62573242 165.42700195 C52.57063477 165.46051758 51.51553711 165.4940332 50.4284668 165.52856445 C42.68182793 165.62631384 42.68182793 165.62631384 38.76245117 163.59887695 C34.87133432 158.76422274 33.30485485 152.79825794 31.63745117 146.90356445 C29.49111322 139.43550739 27.24713877 132.00087654 24.95776367 124.57543945 C24.61181656 123.45337097 24.26586945 122.33130249 23.90943909 121.17523193 C22.81620979 117.63373978 21.72117652 114.09280961 20.62573242 110.55200195 C20.24784576 109.32924561 19.86995911 108.10648926 19.48062134 106.84667969 C15.23018051 93.09839292 10.95689434 79.36009556 6.50073242 65.67700195 C2.94856357 54.74477029 -0.55768072 43.7990071 -3.98251343 32.82617188 C-4.52897149 31.08043416 -5.07887826 29.33577167 -5.63247681 27.59228516 C-6.40236329 25.16507658 -7.15933791 22.73418756 -7.91333008 20.30200195 C-8.14401688 19.58363159 -8.37470367 18.86526123 -8.61238098 18.12512207 C-9.96745755 13.69348112 -10.56881855 9.80478325 -10.18676758 5.17700195 C-7.13456924 1.31088406 -4.82294902 0.06229636 0 0 Z " fill="#00DBDC" transform="translate(1801.186767578125,159.822998046875)"/>
<path d="M0 0 C1.90293773 1.64103515 3.75001366 3.31080075 5.5546875 5.05859375 C5.73644531 4.44371094 5.91820312 3.82882813 6.10546875 3.1953125 C6.35683594 2.38707031 6.60820313 1.57882813 6.8671875 0.74609375 C7.11082031 -0.05441406 7.35445312 -0.85492188 7.60546875 -1.6796875 C8.63803405 -4.13999741 9.50083904 -5.26276498 11.5546875 -6.94140625 C13.4450531 -7.3290863 13.4450531 -7.3290863 15.59545898 -7.34545898 C16.40317245 -7.35814316 17.21088593 -7.37082733 18.04307556 -7.38389587 C19.34626488 -7.37949242 19.34626488 -7.37949242 20.67578125 -7.375 C21.57208755 -7.38024185 22.46839386 -7.3854837 23.39186096 -7.3908844 C25.28735315 -7.39730735 27.18288519 -7.39596406 29.07836914 -7.38745117 C31.97809926 -7.37894756 34.87585553 -7.40768752 37.77539062 -7.43945312 C39.61718691 -7.44106539 41.45898668 -7.44048712 43.30078125 -7.4375 C44.1675499 -7.44873398 45.03431854 -7.45996796 45.92735291 -7.47154236 C47.14365135 -7.45747093 47.14365135 -7.45747093 48.38452148 -7.44311523 C49.09495102 -7.44294907 49.80538055 -7.4427829 50.53733826 -7.44261169 C53.51429757 -6.70299349 54.64181905 -5.31232963 56.5546875 -2.94140625 C57.07087612 -0.04248905 57.07087612 -0.04248905 57.09385681 3.3903656 C57.12122925 5.3440657 57.12122925 5.3440657 57.14915466 7.3372345 C57.14922586 8.77877811 57.14889181 10.22032179 57.14819336 11.66186523 C57.16184056 13.18143267 57.17719262 14.70098561 57.19412231 16.22052002 C57.23484214 20.34654521 57.25054855 24.4723217 57.26098704 28.59852099 C57.27528026 32.91643709 57.30970139 37.23419882 57.34120178 41.55201721 C57.39091203 48.80426788 57.42450677 56.05645934 57.44848633 63.30883789 C57.47639287 71.69213566 57.52918171 80.07499436 57.59546942 88.45807022 C57.65870485 96.52257544 57.7047855 104.58709028 57.74289131 112.65175056 C57.75937927 116.08350666 57.78178881 119.51514869 57.80894279 122.94683647 C57.84011758 126.98925794 57.85624043 131.03146873 57.86078262 135.07400513 C57.86484002 136.55709737 57.87403566 138.04018584 57.88876152 139.52321053 C57.90801028 141.54866835 57.90671662 143.57429029 57.90440369 145.59983826 C57.91182036 147.29966685 57.91182036 147.29966685 57.91938686 149.03383541 C57.50854725 152.44127359 56.58896582 154.31918918 54.5546875 157.05859375 C49.42287634 159.62449933 41.30190583 158.37203287 35.58862305 158.40869141 C33.69624531 158.42524707 31.80393 158.4525321 29.91186523 158.49072266 C27.18179936 158.54553847 24.4531986 158.56737193 21.72265625 158.58203125 C20.87978561 158.60470062 20.03691498 158.62737 19.16850281 158.65072632 C14.77705406 158.6349633 13.08927055 158.48092556 9.52587891 155.66577148 C6.70660864 151.93689024 6.78783304 149.6437894 6.5546875 145.05859375 C6.04421875 145.56648437 5.53375 146.074375 5.0078125 146.59765625 C-8.14575985 159.05157049 -23.74074107 163.43592611 -41.46484375 163.2109375 C-63.63935147 162.07750919 -82.08371685 153.81804368 -97.4453125 138.05859375 C-98.26902344 137.23230469 -99.09273437 136.40601563 -99.94140625 135.5546875 C-117.01345702 117.61895794 -122.25737015 93.82318616 -121.75390625 69.734375 C-120.96959304 50.53660062 -114.56577228 32.96418046 -102.4453125 18.05859375 C-102.00445313 17.47851562 -101.56359375 16.8984375 -101.109375 16.30078125 C-90.29792095 2.44180325 -73.98476864 -5.39406186 -57.4453125 -9.94140625 C-56.63320312 -10.17085937 -55.82109375 -10.4003125 -54.984375 -10.63671875 C-36.63499676 -15.08315512 -14.91670562 -11.84281581 0 0 Z M-61.07421875 50.8828125 C-68.00367389 59.75665207 -69.38791888 71.61553375 -68.171875 82.5078125 C-66.56947589 92.13732412 -62.25712082 101.59556359 -54.375 107.6484375 C-43.09518029 115.46783794 -32.96634321 116.65776947 -19.4453125 115.05859375 C-10.08342153 112.4651633 -2.52771395 106.0747643 2.890625 98.08984375 C9.28612227 86.35675102 10.1171658 73.64116723 6.59375 60.9140625 C2.9354238 50.86054201 -4.88592544 42.66758394 -14.4453125 38.05859375 C-32.59558284 31.92734389 -48.49071539 36.79049579 -61.07421875 50.8828125 Z " fill="#00DBDC" transform="translate(1345.4453125,166.94140625)"/>
<path d="M0 0 C2.46980893 2.18711995 4.855091 4.43346801 7.21875 6.734375 C7.85425781 7.31960937 8.48976563 7.90484375 9.14453125 8.5078125 C22.42313153 21.05034846 31.24866467 40.3120254 32.39575195 58.54833984 C32.75743976 75.64709507 32.49507446 91.30906596 24.21875 106.734375 C23.73792969 107.65347656 23.25710938 108.57257813 22.76171875 109.51953125 C18.4786075 117.29332802 13.40485864 124.3560107 7.21875 130.734375 C6.55875 130.734375 5.89875 130.734375 5.21875 130.734375 C5.21875 131.394375 5.21875 132.054375 5.21875 132.734375 C-10.66525115 146.08686346 -29.86152915 155.04504322 -50.78125 155.734375 C-51.78414062 155.77433594 -52.78703125 155.81429687 -53.8203125 155.85546875 C-78.76870603 156.37143309 -101.34900806 148.49907971 -119.78125 131.734375 C-120.48636719 131.12207031 -121.19148437 130.50976562 -121.91796875 129.87890625 C-137.18569103 115.81100497 -145.9775766 93.90624484 -147.0390625 73.45703125 C-147.85117358 49.09622874 -139.97054249 27.34194481 -123.96875 8.921875 C-111.35985167 -4.28744706 -95.42890069 -12.88254836 -77.78125 -17.265625 C-76.92917969 -17.48992187 -76.07710937 -17.71421875 -75.19921875 -17.9453125 C-49.4903665 -23.71104588 -20.30911963 -16.54394577 0 0 Z M-87.03125 42.109375 C-94.84802229 51.77413422 -96.70714515 62.55077059 -95.78125 74.734375 C-93.98416648 85.19974371 -88.49176771 94.26795435 -80.3046875 100.97265625 C-70.48307772 107.82953862 -60.43711698 109.15972434 -48.78125 107.734375 C-38.99615172 105.71315178 -31.04927637 100.40764321 -25.40625 92.171875 C-24.5129864 90.70366549 -23.63569085 89.2255121 -22.78125 87.734375 C-22.20375 86.785625 -21.62625 85.836875 -21.03125 84.859375 C-16.87110857 74.45902142 -16.89977994 63.4119027 -20.77734375 52.921875 C-25.2034727 43.27739168 -32.20772363 35.35018236 -41.78125 30.734375 C-58.60277583 25.10688387 -75.09927988 29.04669449 -87.03125 42.109375 Z " fill="#00DBDC" transform="translate(950.78125,174.265625)"/>
<path d="M0 0 C3.1875 0.4375 3.1875 0.4375 5.5625 3.4375 C6.09875 4.4275 6.635 5.4175 7.1875 6.4375 C7.8475 4.7875 8.5075 3.1375 9.1875 1.4375 C11.5135857 1.05686779 13.84805264 0.72480055 16.1875 0.4375 C17.1875 1.4375 17.1875 1.4375 17.30102539 3.38696289 C17.29578857 4.2196167 17.29055176 5.05227051 17.28515625 5.91015625 C17.28193359 6.80927734 17.27871094 7.70839844 17.27539062 8.63476562 C17.26701172 9.58029297 17.25863281 10.52582031 17.25 11.5 C17.24548828 12.44939453 17.24097656 13.39878906 17.23632812 14.37695312 C17.2245011 16.73053065 17.20802025 19.08398477 17.1875 21.4375 C15.5375 21.4375 13.8875 21.4375 12.1875 21.4375 C11.5275 19.7875 10.8675 18.1375 10.1875 16.4375 C9.5275 17.0975 8.8675 17.7575 8.1875 18.4375 C4.65178571 17.90178571 4.65178571 17.90178571 3.1875 16.4375 C2.1975 18.9125 2.1975 18.9125 1.1875 21.4375 C-0.4625 21.4375 -2.1125 21.4375 -3.8125 21.4375 C-3.84138146 18.12501813 -3.85925799 14.81256833 -3.875 11.5 C-3.88337891 10.55447266 -3.89175781 9.60894531 -3.90039062 8.63476562 C-3.90361328 7.73564453 -3.90683594 6.83652344 -3.91015625 5.91015625 C-3.91539307 5.07750244 -3.92062988 4.24484863 -3.92602539 3.38696289 C-3.7445169 0.27009122 -3.13579434 0.48779023 0 0 Z M11.1875 11.4375 C12.1875 13.4375 12.1875 13.4375 12.1875 13.4375 Z " fill="#00DBDC" transform="translate(1982.8125,121.5625)"/>
<path d="M0 0 C1.37376679 0.00398964 2.74753489 0.01873698 4.12109375 0.04296875 C4.81912109 0.04361328 5.51714844 0.04425781 6.23632812 0.04492188 C11.41828217 0.09015717 11.41828217 0.09015717 12.55859375 1.23046875 C12.59923207 2.8966399 12.60131475 4.5643497 12.55859375 6.23046875 C10.90859375 6.56046875 9.25859375 6.89046875 7.55859375 7.23046875 C7.22859375 11.85046875 6.89859375 16.47046875 6.55859375 21.23046875 C4.90859375 21.23046875 3.25859375 21.23046875 1.55859375 21.23046875 C1.55859375 16.28046875 1.55859375 11.33046875 1.55859375 6.23046875 C-0.42140625 6.23046875 -2.40140625 6.23046875 -4.44140625 6.23046875 C-5.06640625 4.35546875 -5.06640625 4.35546875 -5.44140625 2.23046875 C-3.44140625 0.23046875 -3.44140625 0.23046875 0 0 Z " fill="#00DBDC" transform="translate(1964.44140625,121.76953125)"/>
</svg>
