<?xml version="1.0" encoding="UTF-8" ?>
<!-- Vectorized by Kirilloparma (https://commons.wikimedia.org/wiki/User:Kirilloparma) with Vector Magic (https://vectormagic.com) -->
<svg version="1.1" xmlns="http://www.w3.org/2000/svg" viewBox="7.02 6.9 210.33 210.33">
<title>Unknown icon</title>
<g id="icon">
<path fill="#dcdedf" opacity="1.00" d=" M 94.58 8.47 C 106.17 6.28 118.16 6.57 129.79 8.33 C 128.76 14.19 127.90 20.08 126.78 25.92 C 117.11 24.14 107.19 24.51 97.48 25.75 C 96.55 19.99 95.60 14.22 94.58 8.47 Z"/>
<path fill="#dcdedf" opacity="1.00" d=" M 45.06 31.04 C 54.18 23.52 64.54 17.48 75.65 13.41 C 77.58 19.02 79.75 24.55 81.84 30.10 C 72.64 33.58 63.97 38.52 56.43 44.84 C 52.70 40.19 48.89 35.60 45.06 31.04 Z"/>
<path fill="#dcdedf" opacity="1.00" d=" M 142.61 30.06 C 144.70 24.52 146.73 18.95 148.84 13.42 C 159.88 17.55 170.23 23.52 179.32 31.05 C 175.52 35.62 171.77 40.23 167.93 44.76 C 160.35 38.53 151.77 33.58 142.61 30.06 Z"/>
<path fill="#dcdedf" opacity="1.00" d=" M 13.61 75.43 C 17.65 64.34 23.70 53.99 31.23 44.91 C 35.75 48.76 40.38 52.49 44.92 56.31 C 38.69 63.89 33.71 72.48 30.23 81.65 C 24.70 79.55 19.13 77.57 13.61 75.43 Z"/>
<path fill="#dcdedf" opacity="1.00" d=" M 179.49 56.29 C 184.08 52.53 188.59 48.66 193.25 44.98 C 200.73 54.08 206.76 64.39 210.80 75.46 C 205.26 77.52 199.70 79.56 194.17 81.65 C 190.71 72.46 185.67 63.91 179.49 56.29 Z"/>
<path fill="#dcdedf" opacity="1.00" d=" M 95.39 58.31 C 107.35 50.65 124.35 52.46 134.41 62.51 C 144.78 72.14 147.19 88.93 140.13 101.16 C 137.16 106.67 132.29 110.80 127.09 114.11 C 122.70 117.35 123.86 123.28 123.76 127.99 C 116.09 128.01 108.42 128.00 100.75 128.00 C 100.87 123.27 100.32 118.47 101.45 113.82 C 103.28 105.59 108.47 98.16 115.63 93.68 C 118.44 92.13 120.77 89.35 120.78 86.00 C 121.18 80.82 116.20 75.99 111.00 76.79 C 106.58 77.29 103.44 81.45 103.23 85.74 C 95.55 85.75 87.87 85.76 80.19 85.74 C 80.13 74.79 85.97 63.98 95.39 58.31 Z"/>
<path fill="#dcdedf" opacity="1.00" d=" M 8.46 94.50 C 14.33 95.35 20.16 96.48 26.03 97.33 C 24.38 107.07 24.46 117.01 25.97 126.75 C 20.15 127.63 14.35 128.68 8.53 129.61 C 6.50 118.01 6.62 106.11 8.46 94.50 Z"/>
<path fill="#dcdedf" opacity="1.00" d=" M 198.35 97.46 C 204.18 96.34 210.06 95.54 215.89 94.42 C 217.77 106.05 217.84 118.01 215.87 129.63 C 210.07 128.71 204.30 127.66 198.50 126.79 C 199.75 117.07 200.09 107.14 198.35 97.46 Z"/>
<path fill="#dcdedf" opacity="1.00" d=" M 106.38 139.49 C 115.17 135.82 126.19 141.63 127.89 151.04 C 130.41 160.75 121.91 171.08 111.91 170.53 C 102.41 170.74 94.55 161.19 96.35 151.90 C 97.20 146.38 101.09 141.40 106.38 139.49 Z"/>
<path fill="#dcdedf" opacity="1.00" d=" M 13.58 148.69 C 19.10 146.53 24.71 144.59 30.22 142.42 C 33.71 151.61 38.70 160.19 44.90 167.82 C 40.32 171.60 35.79 175.45 31.12 179.14 C 23.70 170.01 17.65 159.75 13.58 148.69 Z"/>
<path fill="#dcdedf" opacity="1.00" d=" M 194.12 142.42 C 199.69 144.50 205.25 146.61 210.83 148.66 C 206.75 159.74 200.72 170.09 193.20 179.19 C 188.65 175.34 184.02 171.59 179.44 167.78 C 185.70 160.23 190.70 151.62 194.12 142.42 Z"/>
<path fill="#dcdedf" opacity="1.00" d=" M 45.10 193.07 C 48.87 188.48 52.61 183.85 56.51 179.36 C 64.08 185.58 72.64 190.55 81.81 194.01 C 79.75 199.52 77.66 205.02 75.70 210.57 C 64.50 206.78 54.23 200.52 45.10 193.07 Z"/>
<path fill="#dcdedf" opacity="1.00" d=" M 142.62 193.98 C 151.82 190.57 160.35 185.51 167.97 179.33 C 171.75 183.89 175.51 188.49 179.32 193.04 C 170.23 200.55 159.90 206.61 148.81 210.64 C 146.72 205.10 144.66 199.54 142.62 193.98 Z"/>
<path fill="#dcdedf" opacity="1.00" d=" M 97.58 198.19 C 107.26 199.90 117.21 199.86 126.90 198.19 C 127.76 204.08 128.96 209.93 129.70 215.85 C 118.09 217.53 106.18 217.87 94.62 215.64 C 95.65 209.83 96.54 204.00 97.58 198.19 Z"/>
</g>
</svg>