<?xml version="1.0" encoding="utf-8"?>
<!-- Generator: Adobe Illustrator 19.2.1, SVG Export Plug-In . SVG Version: 6.00 Build 0)  -->
<svg version="1.1" id="layer" xmlns="http://www.w3.org/2000/svg" xmlns:xlink="http://www.w3.org/1999/xlink" x="0px" y="0px"
	 viewBox="0 0 652 652" style="enable-background:new 0 0 652 652;" xml:space="preserve">
<style type="text/css">
	.st0{fill:#4D70D5;}
</style>
<path d="M262.4,362.5h-58.2V351l35.3-46h-34.3v-15h56.3v13.7l-32.8,43.8h33.7V362.5z M323.3,339.7h-38.5c1.3,6.5,5.7,10.5,11.3,10.5
	c3.8,0,8.3-1,11.2-6.3l14.8,3.2c-4.5,11.5-14,17-26,17c-15.2,0-27.7-11.5-27.7-28.8c0-17.2,12.5-28.8,27.8-28.8
	c14.8,0,26.8,11,27.2,28.8v4.5H323.3z M285.1,329.2h21.7c-1.5-5.8-5.8-8.5-10.5-8.5C291.5,320.7,286.6,323.7,285.1,329.2z
	 M370.6,307.8l-0.7,17.3h-3c-11.7,0-18.2,6.3-18.2,20.3v17h-16.7v-54.3h16.7v10.3c3.8-6.5,9.5-11.2,18.2-11.2
	C368.3,307.3,369.5,307.5,370.6,307.8z M432,335.3c0,17.2-13.2,28.7-28.8,28.7c-15.8,0-29.2-11.5-29.2-28.7s13.2-28.5,29.2-28.5
	C418.8,306.8,432,318.2,432,335.3z M415.8,335.3c0-8.5-6.2-14-12.7-14c-6.8,0-13,5.7-13,14c0,8.5,6.2,14,13,14
	C409.7,349.3,415.8,343.8,415.8,335.3z M497.2,309.3l-17,3.5c-1.3-6.8-6.7-10.2-12.2-10.2c-5.8,0-9.5,3.2-9.5,7.3c0,3,1.3,5.2,5.7,6
	l14.5,3.3c12.2,2.8,19.3,9.7,19.3,21.2c0,15.5-13.3,23.5-28.8,23.5c-15.8,0-28.8-7.8-30.7-22l17.8-3.5c1.8,7.5,6.8,10.7,13.8,10.7
	c6.5,0,10.3-3,10.3-7.5c0-3.2-1.5-5.3-6.5-6.3l-14.7-3.2c-10-2.3-18.8-7.8-18.8-21c0-14,11.3-22.8,27.7-22.8
	C483.5,288.3,494.5,296.2,497.2,309.3z M563.2,309.3l-17,3.5c-1.3-6.8-6.7-10.2-12.2-10.2c-5.8,0-9.5,3.2-9.5,7.3c0,3,1.3,5.2,5.7,6
	l14.5,3.3c12.2,2.8,19.3,9.7,19.3,21.2c0,15.5-13.3,23.5-28.8,23.5c-15.8,0-28.8-7.8-30.7-22l17.8-3.5c1.8,7.5,6.8,10.7,13.8,10.7
	c6.5,0,10.3-3,10.3-7.5c0-3.2-1.5-5.3-6.5-6.3l-14.7-3.2c-10-2.3-18.8-7.8-18.8-21c0-14,11.3-22.8,27.7-22.8
	C549.4,288.3,560.5,296.2,563.2,309.3z M626,362.5h-51.8V290h17.3v56.8H626V362.5z"/>
<path class="st0" d="M26,360.2h33.8V394H26V360.2z M127.2,326.3v-33.7H93.6V259H59.9v33.7H26v33.7h33.8v33.8h33.7v33.7h33.7v-33.7
	h33.8v-33.8H127.2z"/>
</svg>
